<svg width="351" height="196" viewBox="0 0 351 196" fill="none" xmlns="http://www.w3.org/2000/svg">
<path d="M253.217 89.9311C253.217 89.9311 246.903 81.5743 253.602 76.9239C253.602 76.9239 258.447 74.389 262.242 74.861C262.242 74.861 256.278 83.5674 257.974 84.5639C259.671 85.5779 263.904 74.3889 263.904 74.3889C263.904 74.3889 274.591 74.0218 277.896 75.875C277.896 75.875 268.346 82.7282 270.235 83.2877C272.124 83.8471 282.374 77.1687 282.374 77.1687C282.374 77.1687 292.151 79.4589 291.242 85.4555C290.332 91.4521 286.817 93.0955 285.33 92.8507C283.843 92.5885 275.29 88.7073 275.028 89.9311C274.766 91.1374 279.785 95.4731 283.458 95.8927C283.458 95.8927 276.007 103.131 271.512 100.631C267.017 98.1305 266.842 94.5815 264.044 93.0955C261.245 91.5919 258.779 91.4521 259.881 92.8682C260.983 94.2843 266.125 95.9277 267.594 98.9347C269.064 101.959 270.428 104.022 265.67 102.991C260.93 101.977 253.357 97.9731 253.269 93.9521C253.217 89.9311 253.217 89.9311 253.217 89.9311Z" fill="#82B378"/>
<path d="M286.414 85.333C286.414 85.333 259.636 82.6232 253.234 89.931C253.234 89.931 251.678 93.7772 247.427 97.0989L246.693 98.7772C246.693 98.7772 251.643 94.1618 253.339 93.9695C253.322 93.9695 251.31 84.3016 286.414 85.333Z" fill="#82B378"/>
<path d="M247.41 97.0989C247.41 97.0989 241.376 100.998 240.501 108.585L241.533 108.742C241.533 108.742 243.859 100.98 247.375 98.1129C250.908 95.2457 247.41 97.0989 247.41 97.0989Z" fill="#82B378"/>
<path d="M222.258 69.9309C222.258 69.9309 208.266 62.0987 214.79 51.4692C214.79 51.4692 220.019 44.9481 225.616 43.2698C225.616 43.2698 222.626 59.1266 225.616 59.4938C228.607 59.8609 227.663 41.5914 227.663 41.5914C227.663 41.5914 242.408 34.5109 248.197 35.0704C248.197 35.0704 239.049 50.5601 242.04 50.1755C245.031 49.8083 255.298 34.1263 255.298 34.1263C255.298 34.1263 270.41 31.3291 272.841 40.2802C275.273 49.2314 271.355 53.707 269.116 54.2664C266.877 54.8259 252.5 54.6336 252.885 56.5042C253.252 58.3749 262.959 61.3469 268.381 59.6686C268.381 59.6686 262.417 74.4065 254.564 73.6548C246.728 72.903 244.297 68.0603 239.452 67.6932C234.607 67.326 231.056 68.6197 233.487 69.9309C235.918 71.2421 244.122 70.3505 248.04 73.6897C251.957 77.0114 255.123 79.0744 247.847 80.5604C240.571 82.0465 227.505 81.1199 224.899 75.5254C222.258 69.9309 222.258 69.9309 222.258 69.9309Z" fill="#A8D29F"/>
<path d="M265.915 43.0775C265.915 43.0775 226.719 55.77 222.241 69.931C222.241 69.931 222.433 76.2772 218.515 83.55V86.3473C218.515 86.3473 222.626 76.8367 224.865 75.5255C224.865 75.5255 216.102 63.2176 265.915 43.0775Z" fill="#82B378"/>
<path d="M218.515 83.55C218.515 83.55 212.463 92.7285 215.909 103.882L217.466 103.463C217.466 103.463 215.962 91.1725 219.11 84.9836C222.293 78.7947 218.515 83.55 218.515 83.55Z" fill="#82B378"/>
<path d="M148.447 73.9519C148.447 73.9519 164.731 67.0637 158.872 54.616C158.872 54.616 153.939 46.8362 148.01 44.3187C148.01 44.3187 149.357 62.0462 146.051 62.0987C142.728 62.1511 145.981 42.2208 145.981 42.2208C145.981 42.2208 130.677 32.6752 124.275 32.5878C124.275 32.5878 132.426 50.6649 129.19 49.8957C125.972 49.1265 116.614 30.7172 116.614 30.7172C116.614 30.7172 100.383 25.822 96.6398 35.3326C92.8968 44.8432 96.6398 50.2279 99.036 51.1195C101.415 52.0111 117.191 53.5321 116.562 55.5426C115.932 57.5357 104.93 59.6336 99.2109 57.1336C99.2109 57.1336 103.968 74.0044 112.644 74.1443C121.319 74.2841 124.573 69.2491 129.925 69.4414C135.294 69.6162 139.02 71.4869 136.204 72.6233C133.388 73.7596 124.503 71.8016 119.798 74.9834C115.093 78.1653 111.367 80.0185 119.168 82.536C126.969 85.0535 141.399 85.6129 144.932 79.7912C148.447 73.9519 148.447 73.9519 148.447 73.9519Z" fill="url(#paint0_linear_158_293)"/>
<path d="M103.846 39.2312C103.846 39.2312 145.246 57.8853 148.447 73.9519C148.447 73.9519 147.468 80.8751 150.878 89.3192L150.546 92.3787C150.546 92.3787 147.205 81.452 144.896 79.7562C144.914 79.7562 156.021 67.3434 103.846 39.2312Z" fill="url(#paint1_linear_158_293)"/>
<path d="M150.896 89.3192C150.896 89.3192 156.405 100.106 151.281 111.924L149.619 111.278C149.619 111.278 152.767 97.9906 150.056 90.8227C147.328 83.6548 150.896 89.3192 150.896 89.3192Z" fill="#82B378"/>
<path d="M115.04 113.935C112.154 109.792 111.839 105.928 111.839 105.928C111.839 105.928 119.798 100.211 115.11 94.1969C115.11 94.1969 111.489 90.5955 107.974 89.9486C107.974 89.9486 110.877 99.3718 109.093 99.8089C107.309 100.246 106.627 89.0745 106.627 89.0745C106.627 89.0745 97.182 85.7703 93.7188 86.522C93.7188 86.522 100.33 95.2983 98.4938 95.2809C96.6573 95.2634 89.3461 86.4521 89.3461 86.4521C89.3461 86.4521 79.9711 85.7878 79.114 91.3822C78.257 96.9942 80.9331 99.4418 82.3323 99.6166C83.7316 99.8089 92.442 98.7075 92.3545 99.8613C92.2496 101.015 86.5651 103.498 83.1719 102.851C83.1719 102.851 87.8069 111.4 92.5119 110.403C97.217 109.407 98.3539 106.295 101.292 105.736C104.213 105.176 106.452 105.736 105.07 106.68C103.689 107.641 98.6337 107.659 96.4823 109.966C94.331 112.257 92.5469 113.725 97.0595 114.127C101.59 114.529 109.46 113.078 110.65 109.494C110.702 109.337 110.755 109.197 110.807 109.04C110.737 109.337 110.65 109.494 110.65 109.494C111.524 109.879 112.994 112.012 114.043 113.655C114.2 113.935 114.428 114.32 114.778 114.844C114.918 115.089 115.04 115.281 115.11 115.421C117.104 119.145 117.034 125.963 117.034 125.963L118.013 126.103C119.343 119.092 115.04 113.935 115.04 113.935Z" fill="#82B378"/>
<path d="M61.8157 18.3919C61.7457 17.9548 60.7313 13.3568 53.5951 14.1436C53.5951 14.1436 57.1457 14.0562 57.9677 15.5072C57.9677 15.5072 55.3091 13.9513 53.4726 14.8429C51.6186 15.7345 50.9889 19.2835 51.1289 20.4024C51.2863 21.5213 52.8779 24.9479 54.1548 25.0878C54.6445 25.1402 55.1692 25.0353 55.6415 24.878C55.3966 25.4374 55.1517 26.0493 54.9418 26.7137C52.9479 32.9375 56.6909 38.1823 58.9997 37.2208C60.4864 36.5914 61.291 39.1614 61.291 39.1614L74.479 24.9129C74.479 24.878 67.3428 14.3359 61.8157 18.3919Z" fill="#2C3A64"/>
<path d="M78.9917 190.09L75.7909 191.279C75.7909 191.279 61.8683 171.978 60.1542 154.984C59.8393 151.96 59.9443 149.005 60.6089 146.296C60.6089 146.296 60.469 145.526 60.2416 144.145C60.1367 143.498 59.9968 142.729 59.8393 141.855C59.3846 139.267 58.7549 135.719 58.0553 131.68C56.4112 122.379 54.2948 110.491 52.6506 101.767L53.5077 101.487L62.8478 98.4803L64.7717 92.3439L71.7331 90.5082C71.7331 90.5082 73.2897 93.5502 74.6715 107.903C74.9339 109.792 75.1612 111.872 75.3361 114.11C75.8784 120.981 75.9133 129.512 74.6715 139.268C74.3567 141.768 73.9544 144.337 73.4471 146.995C73.0798 148.935 73.0274 151.575 73.1848 154.617C73.8844 168.516 78.9917 190.09 78.9917 190.09Z" fill="#2B478B"/>
<path d="M75.3361 114.127L60.224 144.163C60.1191 143.516 59.9792 142.747 59.8218 141.872C59.367 139.285 58.7373 135.736 58.0377 131.697C56.3936 122.397 54.2772 110.508 52.6331 101.785L53.4901 101.505L62.8302 98.4978L64.7541 92.3613L71.7155 90.5256C71.7155 90.5256 73.2722 93.5676 74.6539 107.921C74.9338 109.792 75.1611 111.872 75.3361 114.127Z" fill="#233862"/>
<path d="M68.6897 94.3544L68.3398 91.3473C62.4804 92.9033 46.8087 86.9941 46.8087 86.9941C46.8087 86.9941 41.1242 91.9767 41.8763 103.952C42.2436 109.792 42.9083 134.6 43.6079 141.942C43.8528 144.6 44.0802 146.488 44.1676 147.257C44.2026 147.484 44.1151 147.712 43.9927 147.904C42.9782 149.635 42.1212 151.435 41.4216 153.289C34.6002 171.436 42.471 193.796 42.471 193.796L44.5174 192.974C44.5174 192.974 48.9951 168.097 52.6331 157.1C53.2453 155.229 53.84 153.778 54.3822 152.904C55.9564 150.352 57.4256 146.191 58.7549 141.226C61.2736 131.855 63.3025 119.669 64.6493 110.246C64.8417 110.281 68.6897 94.3544 68.6897 94.3544Z" fill="#2B478B"/>
<path d="M78.1344 70.3156C78.2569 70.438 78.3618 70.5429 78.5018 70.6653C83.5041 75.3331 90.2555 79.4591 93.8761 80.3682C96.2549 80.9801 101.485 80.1584 105.84 79.2667C108.743 78.6898 111.262 78.0604 112.294 77.8157C112.626 77.7458 112.819 77.6758 112.819 77.6758L112.364 74.7387C112.364 74.7387 109.758 74.5289 106.522 74.1618C102.009 73.6373 96.2898 72.8156 94.8381 71.959C91.4449 69.9485 85.4806 61.4868 80.7056 56.1546C80.4607 55.8574 80.1984 55.5776 79.9535 55.3154C79.7786 55.1231 79.5862 54.9133 79.4113 54.721C79.3763 54.686 79.3238 54.6161 79.2713 54.5811C79.044 54.3713 78.8691 54.179 78.6767 54.0042C78.6767 53.9867 78.6417 53.9692 78.6067 53.9518C77.7497 53.0951 76.2629 52.0636 76.2629 52.0636C75.4234 51.5916 74.7412 51.5042 74.2515 51.9063C74.2515 51.9063 73.6218 52.5182 73.0097 53.672C72.8872 53.9168 72.7473 54.179 72.6249 54.4762C72.5199 54.6336 72.4674 54.8084 72.4325 54.9658C72.0302 56.0322 71.7328 57.3609 71.7853 58.9343C71.8203 60.1232 72.0477 61.4169 72.5724 62.8505C73.3945 65.2106 75.5108 67.833 78.1344 70.3156Z" fill="#FFB27D"/>
<path d="M73.7795 57.9553C72.0829 59.0567 69.9665 59.9658 67.3254 60.4903C57.4256 62.4833 53.8925 54.0741 52.6506 48.3398C54.0149 47.6055 55.2742 47.4831 56.0089 47.4132C56.726 47.3433 57.4781 47.3083 58.0903 47.3083C59.2097 46.4866 60.9587 43.0775 61.4835 37.7278L61.9382 37.8676L69.6342 40.2103C69.6342 40.2103 69.2144 42.6579 68.9695 44.9831C68.7771 46.8013 68.7071 48.5321 69.0395 48.9692C69.6342 49.109 70.0015 49.2139 70.0015 49.2139C70.0889 49.3713 72.2403 53.1301 73.7795 57.9553Z" fill="#FFB27D"/>
<path d="M77.2251 64.1442C77.1726 64.354 77.1201 64.5638 77.0677 64.7735C75.3361 70.5778 73.9193 93.7774 73.9193 93.7774C74.8463 96.6795 57.9678 97.2739 48.6627 95.9278C45.287 95.4383 42.8907 94.704 42.7333 93.725C41.0717 89.9662 45.147 82.9731 47.4908 79.4066C47.7881 78.952 48.033 78.4975 48.2429 78.008C48.7676 76.7842 49.03 75.4555 48.9775 74.1093C48.9075 72.2736 48.7501 70.4904 48.5577 68.8121C48.1904 65.6477 47.7182 62.9029 47.4558 60.9448C47.9456 60.4553 48.4178 60.0008 48.8726 59.5812C49.5547 58.9168 50.1494 58.305 50.5517 57.7105C51.0064 57.0637 51.2688 56.4343 51.2163 55.7699C51.1639 55.263 51.0764 54.7559 50.954 54.2664C50.9015 54.0217 50.8315 53.7944 50.7616 53.5496C50.0095 51.0846 48.6102 48.9342 48.6102 48.9342C51.1289 47.4656 55.9738 47.4132 55.9738 47.4132C55.9738 47.4132 56.0088 47.6754 56.0613 48.1125C56.2886 49.8433 56.9533 54.3189 57.6354 55.0706C58.4925 56.0147 71.9079 58.777 72.3627 57.256C72.8174 55.7525 70.0539 49.4412 69.9489 49.2139C74.2517 50.2279 76.1057 51.3818 76.1931 51.4517C73.9018 53.4797 78.4494 58.5672 77.2251 64.1442Z" fill="#5C3DDB"/>
<path d="M69.6166 40.1753C69.6166 40.1753 69.1968 42.6229 68.9519 44.9481C64.5793 44.3887 62.6553 40.1578 61.9207 37.8326L69.6166 40.1753Z" fill="#ED985F"/>
<path d="M70.8586 42.5355C70.8586 42.5355 60.4516 41.6614 61.0988 35.1928C61.746 28.7242 60.8364 24.2661 67.5004 24.5458C74.1644 24.8255 75.2138 27.4304 75.5287 29.6333C75.826 31.8361 73.5872 42.588 70.8586 42.5355Z" fill="#FFB27D"/>
<path d="M75.5809 25.9969C74.1642 23.899 72.9223 24.1962 72.1702 24.7206C66.8006 21.0318 62.6903 25.2801 62.6903 25.2801C61.5359 29.8431 57.9153 32.1683 57.9153 32.1683C57.9153 32.1683 59.6993 33.5319 64.1595 32.8501C65.5238 32.6403 66.8181 31.8186 67.9375 30.7697C65.8736 33.5494 63.25 35.4376 63.25 35.4376C68.7071 33.5494 71.5231 26.5214 71.8029 25.7696C72.3801 26.399 73.4995 27.7626 73.7619 29.0214C74.1117 30.7172 74.0068 34.1263 75.0037 34.1089C75.0212 34.1089 77.6798 29.1613 75.5809 25.9969Z" fill="#2C3A64"/>
<path d="M121.984 74.3542C120.952 75.3507 119.885 77.8158 116.684 77.7808C114.393 77.7633 112.084 78.0255 110.965 78.1479C110.527 78.2178 110.283 78.2528 110.283 78.2528L110.16 74.6164C110.16 74.6164 110.213 74.6164 110.318 74.5989C111.087 74.4766 115.023 73.8821 116.579 72.8507C118.328 71.6793 122.404 72.7633 122.404 72.7633C122.404 72.7633 123.033 73.3926 121.984 74.3542Z" fill="#FFB27D"/>
<path d="M54.3472 195.474H38.2033C38.2033 195.474 37.8185 193.009 38.658 191.139C39.4626 189.356 40.7394 188.534 40.4246 186.366C41.4565 187.415 43.1182 188.604 45.4619 188.289C45.7418 188.761 47.3159 191.226 48.2604 191.925C49.3099 192.695 54.0149 192.415 54.3472 195.474Z" fill="#233862"/>
<path d="M89.0314 195.474H72.8874C72.8874 195.474 72.2753 192.905 73.3422 191.139C74.2867 189.583 73.9194 188.709 73.2198 187.415C73.9544 187.712 74.8989 187.992 75.9483 187.922C76.7529 187.869 77.6099 187.502 78.3446 187.083C79.0442 187.869 82.0176 191.244 82.9446 191.908C83.9941 192.695 88.6991 192.415 89.0314 195.474Z" fill="#233862"/>
<path d="M68.3748 38.7944C68.3748 38.7944 68.5147 39.6515 70.6311 39.6515C70.6311 39.6515 72.3976 39.6515 72.3976 38.7244C72.4151 38.7244 70.736 37.9548 68.3748 38.7944Z" fill="white"/>
<path d="M50.8665 79.8961C50.2194 83.9346 47.2984 92.0641 48.6627 95.9278C45.287 95.4382 42.8907 94.704 42.7333 93.7249C41.0717 89.9661 45.147 82.9731 47.4908 79.4066C47.7881 78.952 48.033 78.4975 48.2429 78.008C48.7676 76.7842 49.03 75.4555 48.9775 74.1093C48.9076 72.2736 48.7501 70.4904 48.5577 68.812C48.5752 68.7946 51.5487 75.5953 50.8665 79.8961Z" fill="#795BF0"/>
<path d="M73.7271 52.6056C73.832 56.207 76.4381 66.0673 77.0503 64.7735C77.7499 63.2875 80.4785 57.6406 81.7728 57.4308C81.7028 57.1685 76.4556 51.3643 76.2282 51.4342C76.2282 51.4342 74.8115 51.8713 73.7271 52.6056Z" fill="url(#paint2_linear_158_293)"/>
<path d="M48.96 103.603L46.2839 105.386C46.2839 105.386 45.6018 104.547 44.5349 103.183C44.22 102.781 44.0451 102.536 44.0451 102.536C43.1881 101.435 42.2086 100.106 41.1242 98.6376L41.1067 98.6201C39.3051 96.0851 37.3112 93.183 35.7895 90.5781C34.74 88.7249 33.918 87.0116 33.5157 85.6654C33.4632 85.5255 33.4457 85.4207 33.4282 85.2633C32.6412 81.8367 34.0929 75.0534 36.3842 68.4449C36.699 67.5358 37.0313 66.6267 37.3462 65.7526C38.5705 62.5008 39.9348 59.4588 41.3166 56.9937C42.1211 55.5077 42.9257 54.214 43.7128 53.2524C43.9752 52.9028 44.2375 52.5881 44.4999 52.3084C44.6398 52.1335 44.7972 51.9762 44.9372 51.8188C46.5463 51.9587 49.922 52.5881 52.4232 55.4902C52.3882 55.6476 52.3357 55.7874 52.2833 55.9448C51.2688 59.214 49.7121 63.2176 48.0855 67.1512C47.2109 69.3016 46.3014 71.452 45.5143 73.4625C45.0071 74.6688 44.5524 75.8226 44.1501 76.8716C43.3805 78.8996 42.8033 80.5954 42.5759 81.7843C42.4185 82.5535 42.6459 84.0046 43.0482 85.7703C43.7653 88.8648 45.1121 93.0431 46.3714 96.5746C46.8786 98.0607 47.3859 99.4243 47.8231 100.561C48.5053 102.396 48.96 103.603 48.96 103.603Z" fill="#FFB27D"/>
<path d="M50.1319 65.6827C47.4558 61.6442 39.7773 59.9134 39.7773 59.9134C44.0976 46.1895 55.4666 47.4657 55.4666 47.4657C55.4666 47.4657 51.3562 61.7316 50.1319 65.6827Z" fill="url(#paint3_linear_158_293)"/>
<path d="M46.2839 105.386C46.2839 105.386 46.9836 106.417 47.071 107.169C47.1585 107.921 47.8231 110.386 48.6802 111.173C49.5372 111.959 51.5137 113.533 51.7935 113.288C52.0734 113.043 52.8605 111.19 52.1258 109.879C51.7935 109.285 51.3388 107.641 50.7441 107.239C50.027 106.75 48.9775 103.585 48.9775 103.585L46.2839 105.386Z" fill="#FFB27D"/>
<path d="M48.9775 104.005C48.9775 104.005 51.1114 105.089 51.3913 105.945C51.6711 106.802 52.878 108.55 52.7555 108.76C52.6331 108.97 50.7791 107.799 50.1494 106.715C49.5198 105.648 48.9775 104.005 48.9775 104.005Z" fill="#FFB27D"/>
<path d="M99.6831 93.9347L177.709 47.2558C182.012 44.6859 187.382 44.6859 191.684 47.2558L269.711 93.9522V170.055L99.6831 161.54V93.9347Z" fill="#5C3DDB"/>
<path d="M255.088 60.2281H114.323V181.821H255.088V60.2281Z" fill="#FCECDB"/>
<path d="M120.06 66.9765C120.862 66.9765 121.512 66.3268 121.512 65.5254C121.512 64.724 120.862 64.0743 120.06 64.0743C119.258 64.0743 118.608 64.724 118.608 65.5254C118.608 66.3268 119.258 66.9765 120.06 66.9765Z" fill="#EFCBAB"/>
<path d="M249.247 66.9765C250.048 66.9765 250.698 66.3268 250.698 65.5254C250.698 64.724 250.048 64.0743 249.247 64.0743C248.445 64.0743 247.795 64.724 247.795 65.5254C247.795 66.3268 248.445 66.9765 249.247 66.9765Z" fill="#EFCBAB"/>
<path d="M249.247 65.3687H120.06V65.6835H249.247V65.3687Z" fill="#EFCBAB"/>
<path d="M120.217 64.9489H119.902V194.076H120.217V64.9489Z" fill="#EFCBAB"/>
<path d="M249.456 64.9489H249.142V194.076H249.456V64.9489Z" fill="#EFCBAB"/>
<path d="M269.711 93.725V195.474H99.6831V93.725L184.688 144.6L269.711 93.725Z" fill="#7C5CFE"/>
<path d="M99.6831 195.474L177.552 139.669C181.82 136.61 187.557 136.61 191.824 139.669L269.693 195.474H99.6831Z" fill="#5C3DDB"/>
<path d="M210.645 77.0639H159.327C158.575 77.0639 157.98 76.452 157.98 75.7178C157.98 74.966 158.592 74.3716 159.327 74.3716H210.645C211.397 74.3716 211.991 74.9835 211.991 75.7178C212.009 76.452 211.397 77.0639 210.645 77.0639Z" fill="#EFCBAB"/>
<path d="M223.868 82.5011H146.104C145.352 82.5011 144.757 81.8892 144.757 81.1549C144.757 80.4031 145.369 79.8087 146.104 79.8087H223.868C224.62 79.8087 225.214 80.4206 225.214 81.1549C225.214 81.8892 224.62 82.5011 223.868 82.5011Z" fill="#EFCBAB"/>
<path d="M213.775 99.3553H157.508C156.965 99.3553 156.528 98.9181 156.528 98.3758C156.528 97.8336 156.965 97.3964 157.508 97.3964H213.775C214.318 97.3964 214.755 97.8336 214.755 98.3758C214.755 98.9181 214.318 99.3553 213.775 99.3553Z" fill="#EFCBAB"/>
<path d="M163.175 104.478H147.311C146.768 104.478 146.331 104.04 146.331 103.498C146.331 102.956 146.768 102.519 147.311 102.519H163.175C163.717 102.519 164.154 102.956 164.154 103.498C164.154 104.04 163.717 104.478 163.175 104.478Z" fill="#EFCBAB"/>
<path d="M187.102 104.478H167.932C167.39 104.478 166.953 104.04 166.953 103.498C166.953 102.956 167.39 102.519 167.932 102.519H187.102C187.644 102.519 188.081 102.956 188.081 103.498C188.081 104.04 187.627 104.478 187.102 104.478Z" fill="#EFCBAB"/>
<path d="M223.99 104.478H190.863C190.32 104.478 189.883 104.04 189.883 103.498C189.883 102.956 190.32 102.519 190.863 102.519H223.99C224.532 102.519 224.97 102.956 224.97 103.498C224.97 104.04 224.532 104.478 223.99 104.478Z" fill="#EFCBAB"/>
<path d="M187.224 110.422H156.406C155.864 110.422 155.426 109.985 155.426 109.442C155.426 108.9 155.864 108.463 156.406 108.463H187.224C187.767 108.463 188.204 108.9 188.204 109.442C188.204 109.985 187.767 110.422 187.224 110.422Z" fill="#EFCBAB"/>
<path d="M214.895 110.422H190.618C190.075 110.422 189.638 109.985 189.638 109.442C189.638 108.9 190.075 108.463 190.618 108.463H214.895C215.437 108.463 215.874 108.9 215.874 109.442C215.874 109.985 215.437 110.422 214.895 110.422Z" fill="#EFCBAB"/>
<path d="M195.882 122.519C194.028 124.058 192.052 125.334 189.953 126.505C190.128 125.946 190.285 125.369 190.25 124.862C190.215 124.162 189.656 123.848 189.078 123.551C188.938 123.481 188.816 123.393 188.676 123.323C188.886 123.113 189.008 122.816 188.868 122.484C188.624 121.942 187.959 122.03 187.732 122.537C187.697 122.624 187.662 122.711 187.662 122.799C187.574 122.746 187.504 122.694 187.434 122.624C187.784 121.977 188.099 121.33 188.396 120.666C188.466 120.509 188.379 120.334 188.256 120.246C187.767 119.879 187.084 120.002 186.682 120.456C186.21 121.016 186.332 121.855 186.56 122.484C186.577 122.537 186.595 122.572 186.612 122.624C186.175 123.411 185.703 124.18 185.195 124.932C185.143 124.879 185.108 124.844 185.056 124.792C184.916 124.669 184.776 124.495 184.653 124.32C184.881 123.708 185.038 123.079 185.091 122.414C185.108 122.117 184.811 121.977 184.566 122.065C183.884 122.327 183.516 123.009 183.604 123.725C183.639 123.97 183.709 124.215 183.831 124.425C183.674 124.757 183.499 125.072 183.289 125.386C183.149 125.579 183.254 125.788 183.411 125.893C183.184 126.645 182.887 127.414 182.362 127.956C181.942 128.393 181.155 128.725 180.63 128.201C180.298 127.869 180.263 127.309 180.211 126.872C180.106 125.788 180.018 124.669 180.053 123.586C180.071 123.079 180.123 122.554 180.298 122.065C180.403 121.767 180.56 121.313 180.7 121.82C180.77 122.082 180.665 122.467 180.648 122.729C180.595 123.183 181.312 123.253 181.365 122.781C181.417 122.239 181.662 121.103 181.05 120.753C180.543 120.474 180.071 120.876 179.843 121.295C178.986 122.816 179.336 124.914 179.458 126.575C179.563 127.904 180.053 129.512 181.75 129.093C183.341 128.69 183.919 126.697 184.286 125.316C184.303 125.229 184.303 125.159 184.268 125.089C184.268 125.072 184.286 125.072 184.286 125.054C184.356 125.124 184.426 125.194 184.478 125.246C184.566 125.334 184.653 125.421 184.741 125.509C184.566 125.736 184.408 125.963 184.233 126.19C184.129 126.313 184.163 126.505 184.268 126.628C184.811 127.274 185.773 126.802 185.738 125.998C185.738 125.823 185.685 125.648 185.615 125.509C186.122 124.792 186.595 124.04 187.014 123.288C187.242 123.516 187.522 123.655 187.889 123.638C187.907 123.638 187.941 123.638 187.959 123.638C188.151 123.83 188.379 123.988 188.589 124.11C188.799 124.232 189.026 124.302 189.218 124.442C189.568 124.722 189.463 125.037 189.376 125.439C189.271 125.963 189.113 126.488 188.956 126.995C188.221 127.414 187.522 127.939 187.277 128.778C187.049 129.547 187.259 130.351 187.907 130.823C188.099 130.963 188.361 130.858 188.449 130.649C188.851 129.635 189.236 128.621 189.551 127.572C189.568 127.537 189.568 127.502 189.586 127.467C190.233 127.1 190.897 126.785 191.527 126.4C193.206 125.404 194.815 124.267 196.32 123.026C196.704 122.764 196.232 122.222 195.882 122.519ZM187.102 121.558C187.102 121.26 187.242 120.736 187.574 120.753C187.417 121.085 187.277 121.4 187.102 121.715C187.119 121.662 187.119 121.61 187.102 121.558ZM188.029 129.897C187.732 129.32 188.169 128.621 188.659 128.166C188.466 128.743 188.256 129.32 188.029 129.897Z" fill="#F99746"/>
<g opacity="0.5">
<path opacity="0.5" d="M181.662 10.2974L188.991 26.4514L161.968 38.6893L154.639 22.5353L171.815 24.4933L181.662 10.2974Z" fill="#CDE0FB"/>
<path opacity="0.5" d="M154.639 22.5353L181.645 10.2974L173.564 23.8989C172.934 24.9654 171.693 25.5423 170.468 25.315L154.639 22.5353Z" fill="#B1CFF2"/>
</g>
<g opacity="0.5">
<path opacity="0.5" d="M22.8464 115.841L26.7118 126.173L9.43097 132.606L5.58301 122.274L16.1474 124.232L22.8464 115.841Z" fill="#CDE0FB"/>
<path opacity="0.5" d="M5.58301 122.274L22.8464 115.841L17.2668 123.935C16.8296 124.582 16.0425 124.879 15.2904 124.687L5.58301 122.274Z" fill="#B1CFF2"/>
</g>
<g opacity="0.5">
<path opacity="0.5" d="M318.632 54.3188L313.21 74.6163L279.296 65.5777L284.718 45.2803L298.955 59.9483L318.632 54.3188Z" fill="#CDE0FB"/>
<path opacity="0.5" d="M284.718 45.2803L318.633 54.3188L301.037 60.7175C299.655 61.2245 298.098 60.8224 297.136 59.7035L284.718 45.2803Z" fill="#B1CFF2"/>
</g>
<path d="M15.4127 161.54C14.5906 161.54 13.8036 161.523 13.0515 161.506C12.964 161.506 12.894 161.436 12.894 161.348C12.894 161.261 12.964 161.191 13.0515 161.191C13.8036 161.208 14.5906 161.226 15.4127 161.226C15.5002 161.226 15.5701 161.296 15.5701 161.383C15.5701 161.471 15.5002 161.54 15.4127 161.54ZM17.774 161.523C17.6865 161.523 17.6165 161.453 17.6165 161.366C17.6165 161.278 17.6865 161.208 17.774 161.208C18.5261 161.191 19.3306 161.173 20.1352 161.156C20.2227 161.156 20.2926 161.226 20.2926 161.313C20.2926 161.401 20.2227 161.471 20.1352 161.471C19.3306 161.488 18.5261 161.506 17.774 161.523ZM10.6902 161.401C9.85065 161.348 9.04607 161.278 8.32895 161.208C8.2415 161.191 8.17153 161.121 8.18902 161.034C8.20651 160.946 8.27648 160.876 8.36393 160.894C9.09854 160.964 9.88562 161.034 10.7077 161.086C10.7951 161.086 10.8651 161.173 10.8476 161.261C10.8476 161.331 10.7777 161.401 10.6902 161.401ZM22.4965 161.366C22.409 161.366 22.339 161.296 22.339 161.208C22.339 161.121 22.409 161.051 22.4965 161.051C23.2486 161.016 24.0531 160.981 24.8577 160.929C24.9452 160.929 25.0151 160.999 25.0151 161.068C25.0151 161.156 24.9452 161.226 24.8752 161.243C24.0531 161.296 23.2661 161.331 22.4965 161.366ZM27.219 161.103C27.1315 161.103 27.0615 161.034 27.0615 160.964C27.0615 160.876 27.114 160.806 27.2015 160.789C27.9711 160.736 28.7582 160.684 29.5627 160.614C29.6502 160.614 29.7201 160.666 29.7376 160.754C29.7376 160.841 29.6852 160.911 29.5977 160.929C28.7931 160.981 28.0061 161.051 27.219 161.103ZM6.00268 160.876C5.98519 160.876 5.98519 160.876 5.9677 160.876C5.09316 160.719 4.32357 160.527 3.65892 160.317C3.57146 160.282 3.53648 160.194 3.55397 160.124C3.58895 160.037 3.67641 160.002 3.74637 160.02C4.39353 160.229 5.16312 160.404 6.02017 160.561C6.10762 160.579 6.1601 160.666 6.14261 160.736C6.14261 160.824 6.07264 160.876 6.00268 160.876ZM31.924 160.736C31.8365 160.736 31.7666 160.666 31.7666 160.596C31.7666 160.509 31.819 160.439 31.9065 160.422C32.6761 160.352 33.4632 160.282 34.2677 160.212C34.3552 160.212 34.4252 160.264 34.4426 160.352C34.4426 160.439 34.3902 160.509 34.3027 160.527C33.4981 160.596 32.7111 160.666 31.924 160.736C31.9415 160.736 31.924 160.736 31.924 160.736ZM36.629 160.317C36.5415 160.317 36.4891 160.264 36.4716 160.177C36.4716 160.089 36.524 160.02 36.6115 160.002C37.3811 159.932 38.1682 159.845 38.9553 159.775C39.0427 159.775 39.1127 159.827 39.1302 159.915C39.1477 160.002 39.0777 160.072 38.9902 160.089C38.2206 160.159 37.4336 160.229 36.629 160.317C36.6465 160.317 36.6465 160.317 36.629 160.317ZM41.334 159.827C41.2466 159.827 41.1941 159.775 41.1766 159.687C41.1591 159.6 41.2291 159.53 41.3165 159.513C42.0861 159.425 42.8732 159.338 43.6603 159.25C43.7477 159.233 43.8177 159.303 43.8352 159.39C43.8527 159.478 43.7827 159.547 43.6953 159.565C42.9082 159.652 42.1386 159.74 41.334 159.827C41.3515 159.827 41.334 159.827 41.334 159.827ZM1.57752 159.338C1.54254 159.338 1.50756 159.32 1.49007 159.303C1.03531 158.971 0.70298 158.603 0.510582 158.184C0.370656 157.887 0.248221 157.589 0.160767 157.292C0.143276 157.205 0.178259 157.117 0.265713 157.1C0.353166 157.082 0.440621 157.117 0.458112 157.205C0.545566 157.485 0.650509 157.764 0.790435 158.061C0.965343 158.429 1.26269 158.761 1.66497 159.058C1.73494 159.11 1.75242 159.215 1.69995 159.285C1.68246 159.32 1.62999 159.338 1.57752 159.338ZM46.039 159.303C45.969 159.303 45.8991 159.25 45.8816 159.163C45.8641 159.075 45.9341 159.006 46.0215 158.988C46.8086 158.901 47.5782 158.796 48.3653 158.708C48.4527 158.691 48.5227 158.761 48.5402 158.848C48.5577 158.936 48.4877 159.006 48.4003 159.023C47.6132 159.11 46.8261 159.215 46.0565 159.303C46.039 159.303 46.039 159.303 46.039 159.303ZM50.7265 158.726C50.6566 158.726 50.5866 158.673 50.5691 158.586C50.5516 158.499 50.6216 158.429 50.709 158.411C51.4786 158.306 52.2657 158.219 53.0528 158.114C53.1403 158.096 53.2102 158.166 53.2277 158.254C53.2452 158.341 53.1752 158.411 53.0878 158.429C52.3007 158.533 51.5311 158.621 50.744 158.726H50.7265ZM55.3966 158.131C55.3266 158.131 55.2566 158.079 55.2392 157.992C55.2217 157.904 55.2916 157.834 55.3791 157.817C56.1662 157.712 56.9357 157.607 57.7228 157.502C57.8103 157.485 57.8802 157.554 57.8977 157.642C57.9152 157.729 57.8453 157.799 57.7578 157.817C56.9707 157.922 56.2011 158.026 55.4141 158.131H55.3966ZM60.0841 157.502C60.0141 157.502 59.9442 157.45 59.9267 157.362C59.9092 157.275 59.9791 157.205 60.0666 157.187C60.8537 157.082 61.6233 156.978 62.4104 156.855C62.4978 156.838 62.5678 156.908 62.5853 156.995C62.6028 157.082 62.5328 157.152 62.4453 157.17C61.6583 157.275 60.8887 157.397 60.1016 157.502C60.1016 157.502 60.1016 157.502 60.0841 157.502ZM64.7716 156.838C64.7017 156.838 64.6317 156.785 64.6142 156.698C64.5967 156.61 64.6667 156.54 64.7541 156.523C65.5412 156.418 66.3108 156.296 67.0979 156.191C67.1853 156.173 67.2553 156.243 67.2728 156.331C67.2903 156.418 67.2203 156.488 67.1329 156.505C66.3633 156.628 65.5762 156.733 64.7891 156.838H64.7716ZM69.4416 156.156C69.3717 156.156 69.3017 156.103 69.2842 156.016C69.2667 155.929 69.3367 155.859 69.4241 155.841C70.2112 155.719 70.9808 155.614 71.7679 155.491C71.8554 155.474 71.9253 155.544 71.9428 155.631C71.9603 155.719 71.8903 155.789 71.8029 155.806C71.0333 155.929 70.2462 156.033 69.4591 156.156H69.4416ZM74.1117 155.439C74.0417 155.439 73.9717 155.387 73.9543 155.299C73.9368 155.212 74.0067 155.124 74.0942 155.124C74.8813 155.002 75.6509 154.88 76.4205 154.757C76.5079 154.74 76.5954 154.81 76.5954 154.897C76.6129 154.984 76.5429 155.072 76.4554 155.072C75.6858 155.194 74.8988 155.317 74.1117 155.439C74.1292 155.439 74.1292 155.439 74.1117 155.439ZM0.160767 155.089C0.143276 155.089 0.143274 155.089 0.125783 155.089C0.0383297 155.072 -0.0141393 154.984 0.0033514 154.897C0.160768 154.145 0.510583 153.429 1.0528 152.747C1.10527 152.677 1.21021 152.677 1.28017 152.729C1.35014 152.782 1.35014 152.887 1.29767 152.956C0.772944 153.586 0.440617 154.268 0.300691 154.967C0.300691 155.037 0.23073 155.089 0.160767 155.089ZM78.7817 154.722C78.7117 154.722 78.6418 154.67 78.6243 154.582C78.6068 154.495 78.6768 154.408 78.7467 154.408C79.5338 154.285 80.3034 154.163 81.073 154.04C81.1604 154.023 81.2479 154.093 81.2479 154.163C81.2654 154.25 81.1954 154.338 81.1255 154.338C80.3559 154.46 79.5688 154.582 78.7992 154.705C78.7992 154.722 78.7992 154.722 78.7817 154.722ZM83.4517 153.97C83.3818 153.97 83.3118 153.918 83.2943 153.831C83.2768 153.743 83.3468 153.656 83.4168 153.656C84.2038 153.533 84.9734 153.394 85.743 153.271C85.8305 153.254 85.9179 153.324 85.9179 153.394C85.9354 153.481 85.8655 153.568 85.7955 153.568C85.0259 153.691 84.2563 153.813 83.4692 153.953C83.4692 153.97 83.4517 153.97 83.4517 153.97ZM88.1043 153.201C88.0343 153.201 87.9644 153.149 87.9469 153.061C87.9294 152.974 87.9993 152.887 88.0693 152.887C88.8564 152.764 89.626 152.624 90.3956 152.502C90.483 152.484 90.5705 152.537 90.5705 152.624C90.588 152.712 90.5355 152.799 90.448 152.799C89.6784 152.922 88.9089 153.061 88.1218 153.184C88.1218 153.201 88.1218 153.201 88.1043 153.201ZM92.7743 152.415C92.7043 152.415 92.6344 152.362 92.6169 152.275C92.5994 152.187 92.6519 152.1 92.7393 152.1C93.5264 151.96 94.3135 151.838 95.0656 151.698C95.153 151.68 95.2405 151.733 95.2405 151.82C95.258 151.908 95.2055 151.995 95.1181 151.995C94.3485 152.117 93.5789 152.257 92.7918 152.397C92.7918 152.415 92.7918 152.415 92.7743 152.415ZM97.4268 151.628C97.3569 151.628 97.2869 151.575 97.2694 151.505C97.2519 151.418 97.3044 151.331 97.3919 151.331C98.1789 151.191 98.966 151.051 99.7181 150.928C99.8056 150.911 99.893 150.963 99.893 151.051C99.9105 151.138 99.8581 151.226 99.7706 151.226C99.0185 151.366 98.2314 151.488 97.4443 151.628C97.4443 151.628 97.4443 151.628 97.4268 151.628ZM2.9243 151.435C2.87183 151.435 2.81936 151.418 2.80187 151.366C2.7494 151.296 2.76689 151.191 2.83685 151.138C3.43154 150.719 4.13117 150.317 4.90076 149.949C4.97073 149.914 5.07567 149.949 5.11065 150.019C5.14563 150.089 5.11065 150.194 5.04069 150.229C4.28858 150.596 3.60644 150.998 3.01176 151.401C2.97678 151.418 2.95929 151.435 2.9243 151.435ZM102.097 150.806C102.027 150.806 101.957 150.754 101.939 150.684C101.922 150.596 101.974 150.509 102.062 150.509C102.866 150.369 103.636 150.229 104.388 150.089C104.476 150.072 104.563 150.124 104.563 150.212C104.581 150.299 104.528 150.387 104.441 150.387C103.689 150.526 102.919 150.666 102.114 150.806H102.097ZM106.749 149.967C106.679 149.967 106.609 149.915 106.592 149.845C106.575 149.757 106.627 149.67 106.714 149.67C107.536 149.53 108.306 149.373 109.041 149.25C109.128 149.233 109.216 149.285 109.216 149.373C109.233 149.46 109.181 149.547 109.093 149.547C108.359 149.687 107.589 149.827 106.767 149.967C106.767 149.967 106.767 149.967 106.749 149.967ZM7.13958 149.32C7.06961 149.32 7.01714 149.285 6.99965 149.215C6.96467 149.128 7.01714 149.04 7.08711 149.005C7.78674 148.743 8.53884 148.498 9.34341 148.254C9.43087 148.236 9.51832 148.271 9.53581 148.359C9.5533 148.446 9.51832 148.533 9.43087 148.551C8.64378 148.796 7.89168 149.04 7.19205 149.303C7.17456 149.32 7.15707 149.32 7.13958 149.32ZM111.402 149.128C111.332 149.128 111.262 149.075 111.245 149.005C111.227 148.918 111.28 148.831 111.367 148.831C112.259 148.673 113.029 148.516 113.693 148.393C113.781 148.376 113.868 148.428 113.868 148.516C113.886 148.603 113.833 148.691 113.746 148.691C113.081 148.813 112.294 148.953 111.419 149.128C111.419 149.128 111.419 149.128 111.402 149.128ZM116.072 148.254C116.002 148.254 115.932 148.201 115.915 148.131C115.897 148.044 115.95 147.956 116.037 147.939C116.194 147.904 116.282 147.886 116.299 147.886C116.387 147.869 116.492 147.939 116.492 148.044C116.492 148.166 116.474 148.184 116.089 148.254C116.089 148.254 116.089 148.254 116.072 148.254ZM11.6697 147.956C11.5997 147.956 11.5298 147.904 11.5123 147.834C11.4948 147.747 11.5472 147.659 11.6347 147.642C12.3693 147.467 13.1564 147.292 13.9435 147.117C14.0309 147.1 14.1184 147.152 14.1359 147.24C14.1534 147.327 14.1009 147.414 14.0134 147.432C13.2089 147.589 12.4393 147.764 11.7047 147.956C11.6872 147.956 11.6697 147.956 11.6697 147.956ZM16.3047 147.012C16.2348 147.012 16.1648 146.96 16.1473 146.89C16.1298 146.803 16.1823 146.715 16.2698 146.715C17.0219 146.593 17.8089 146.453 18.6135 146.348C18.701 146.331 18.7709 146.4 18.7884 146.488C18.8059 146.575 18.7359 146.645 18.6485 146.663C17.8439 146.785 17.0743 146.907 16.3222 147.03C16.3222 147.012 16.3047 147.012 16.3047 147.012ZM20.9748 146.331C20.9048 146.331 20.8348 146.278 20.8173 146.191C20.7999 146.103 20.8698 146.033 20.9573 146.016C21.7269 145.928 22.5314 145.841 23.3185 145.754C23.406 145.754 23.4759 145.806 23.4934 145.893C23.4934 145.981 23.441 146.051 23.3535 146.068C22.5664 146.138 21.7793 146.226 21.0097 146.331C20.9923 146.331 20.9923 146.331 20.9748 146.331ZM25.6973 145.858C25.6098 145.858 25.5399 145.789 25.5399 145.719C25.5399 145.631 25.5923 145.561 25.6798 145.544C27.149 145.439 28.0585 145.386 28.0585 145.386C28.146 145.386 28.2159 145.456 28.2159 145.544C28.2159 145.631 28.146 145.701 28.0585 145.701C28.0585 145.701 27.1665 145.754 25.6973 145.858Z" fill="#AFCDFB"/>
<path d="M121.337 156.523L140.717 145.544L123.033 146.593L124.398 149.582L120.742 153.621L121.337 156.523Z" fill="#AFCDFB"/>
<path d="M140.716 145.544L120.41 149.268L105.613 159.547L140.716 145.544Z" fill="white"/>
<path d="M123.033 146.593L140.716 145.544L122.211 140.142L123.033 146.593Z" fill="white"/>
<path d="M226.176 12.2729L248.18 15.752L233.697 5.55957L232.91 8.74143L227.523 9.63304L226.176 12.2729Z" fill="#AFCDFB"/>
<path d="M248.18 15.752L229.972 6.01411L212.009 4.84277L248.18 15.752Z" fill="white"/>
<path d="M233.697 5.55951L248.18 15.7519L237.09 0L233.697 5.55951Z" fill="white"/>
<path d="M292.816 101.382C292.816 101.382 288.321 101.697 285.015 109.774C281.674 117.921 289.143 117.834 286.624 123.026C284.106 128.218 290.245 131.313 292.116 135.561C293.988 139.809 303.38 150.054 304.115 154.74C304.867 159.408 313.21 149.879 313.21 149.879C313.21 149.879 321.693 140.823 318.65 135.561C313.63 126.89 317.985 125.002 317.828 120.159C317.67 115.334 308.488 96.2425 292.816 101.382Z" fill="#233862"/>
<path d="M290.367 130.369C290.367 130.369 272.999 137.939 269.693 137.799C266.387 137.659 246.063 131.61 246.063 131.61L246.588 135.107C246.588 135.107 262.277 144.128 267.769 144.635C273.174 145.142 291.644 139.792 293.428 138.656C295.195 137.519 295.562 131.505 290.367 130.369Z" fill="#FFAD76"/>
<path d="M288.968 138.656C290.56 139.757 292.571 140.683 295.072 141.26C304.5 143.428 308.103 135.474 309.45 130.019C308.173 129.285 306.949 129.127 306.266 129.04C305.584 128.953 304.867 128.9 304.272 128.883C303.223 128.078 301.631 124.757 301.282 119.617L300.844 119.739L293.428 121.767C293.428 121.767 293.76 124.127 293.935 126.348C294.058 128.096 294.285 129.11 293.953 129.512C293.376 129.634 292.816 130.369 292.816 130.369C292.729 130.544 290.577 134.075 288.968 138.656Z" fill="#FFB27D"/>
<path d="M293.446 121.75C293.446 121.75 293.796 124.11 293.953 126.33C298.151 125.911 300.11 121.907 300.879 119.704L293.446 121.75Z" fill="#ED985F"/>
<path d="M292.186 123.97C292.186 123.97 302.174 123.428 301.736 117.204C301.299 110.998 302.296 106.75 295.894 106.837C289.51 106.924 288.426 109.389 288.076 111.487C287.726 113.585 289.58 123.953 292.186 123.97Z" fill="#FFB27D"/>
<path d="M312.318 158.953C313.228 154.338 316.166 135.946 313.228 130.019C312.178 127.886 308.033 127.694 303.485 127.886C302.069 128.795 296.682 132.239 294.46 131.82C294.443 131.82 294.39 131.802 294.338 131.785C293.288 131.523 293.113 130.141 293.97 129.512C293.97 129.512 291.522 129.949 288.723 130.474C287.149 130.771 282.881 132.974 282.881 132.974C282.881 132.974 285.033 136.855 288.181 138.183C287.639 142.991 288.443 145.107 293.428 156.226C297.644 165.614 292.851 174.058 292.851 174.058C292.851 174.058 317.67 194.006 317.81 183.848C317.933 176.191 311.164 164.827 312.318 158.953Z" fill="url(#paint4_linear_158_293)"/>
<path d="M291.644 195.737C290.297 195.579 289.073 194.845 288.321 193.709C288.198 193.534 288.076 193.342 287.936 193.132C285.102 188.848 284.018 175.754 277.651 161.82C276.095 158.429 270.55 157.817 269.028 153.97C269.028 153.97 265.303 141.523 276.165 141.156C287.026 140.788 305.269 175.771 305.567 179.443C305.846 183.009 312.755 198.132 291.644 195.737Z" fill="#233862"/>
<path d="M248.442 195.457H263.904C263.904 195.457 264.481 192.992 263.466 191.314C262.574 189.827 262.907 188.988 263.571 187.747C262.872 188.027 261.962 188.289 260.965 188.237C260.196 188.184 259.374 187.834 258.656 187.432C257.992 188.184 255.141 191.418 254.249 192.065C253.269 192.782 248.757 192.537 248.442 195.457Z" fill="#172B4C"/>
<path d="M310.691 134.844C310.691 134.844 312.703 153.149 299.655 156.995C286.607 160.824 282.899 140.142 293.428 138.656C303.958 137.17 310.691 134.844 310.691 134.844Z" fill="url(#paint5_linear_158_293)"/>
<path d="M268.679 144.775C267.752 151.75 264.114 173.778 257.694 184.53C255.631 187.992 262.907 189.932 262.942 189.932C263.921 189.67 265.548 188.114 266.3 187.45C271.512 182.764 282.077 169.478 282.077 158.813C282.077 153.621 282.164 143.691 278.386 141.173C276.077 139.617 269.046 141.995 268.679 144.775Z" fill="#233862"/>
<path d="M300.862 195.457C300.862 195.457 300.285 194.653 299.288 193.149C298.098 191.349 296.786 187.8 295.177 183.254C293.498 178.481 291.504 172.625 289.021 166.506C288.251 164.617 287.446 162.712 286.572 160.806C285.015 157.415 280.765 157.887 279.243 154.04C279.243 154.04 273.331 140.736 284.193 140.369C295.055 140.002 315.711 175.964 316.901 179.46C318.23 183.271 324.562 199.111 300.862 195.457Z" fill="#2B478B"/>
<path d="M259.793 195.457H275.255C275.255 195.457 275.832 192.992 274.818 191.314C273.926 189.827 274.258 188.988 274.923 187.747C274.223 188.027 273.314 188.289 272.317 188.237C271.547 188.184 270.725 187.834 270.008 187.432C269.343 188.184 266.492 191.418 265.6 192.065C264.621 192.782 260.108 192.537 259.793 195.457Z" fill="#233862"/>
<path d="M295.195 183.254C293.516 178.481 291.522 172.625 289.038 166.506C289.685 161.873 291.085 157.834 293.446 156.208C293.446 156.208 299.148 173.918 295.195 183.254Z" fill="#23407A"/>
<path d="M277.704 144.267C276.777 151.243 275.465 173.778 269.046 184.513C266.982 187.974 274.258 189.915 274.293 189.915C275.273 189.653 276.899 188.097 277.651 187.432C282.864 182.747 293.428 169.46 293.428 158.796C293.428 153.603 287.324 144.093 283.546 141.575C281.237 140.037 278.089 141.505 277.704 144.267Z" fill="#2B478B"/>
<path d="M258.551 125.963C258.551 125.963 257.764 123.953 256.313 124.075C254.878 124.197 241.778 125.963 241.778 125.963C241.778 125.963 243.3 126.33 243.877 127.327L249.911 145.124H265.408L258.551 125.963Z" fill="#EBF3FA"/>
<path d="M309.467 130.019C309.467 130.019 287.516 138.096 284.211 137.939C282.077 137.834 264.359 131.61 264.359 131.61L262.767 134.617C262.767 134.617 280.013 145.701 284.753 145.649C294.11 145.544 309.922 139.792 311.688 138.673C313.455 137.554 314.644 131.156 309.467 130.019Z" fill="#FFBF94"/>
<path d="M264.358 131.593C264.358 131.593 262.767 129.145 261.175 129.075C259.583 129.005 256.855 130.159 255.91 130.334C254.966 130.509 252.307 131.383 253.094 132.677C253.881 133.97 257.555 134.267 259.146 133.97C260.738 133.673 262.749 134.6 262.749 134.6L264.358 131.593Z" fill="#FFBF94"/>
<path d="M261.612 129.145C261.612 129.145 259.094 127.991 258.377 127.781C257.659 127.572 257.799 127.781 258.009 128.463C258.219 129.145 259.513 129.792 259.513 130.019C259.513 130.246 261.612 129.145 261.612 129.145Z" fill="#FFBF94"/>
<path d="M290.315 120.404C290.315 120.404 291.259 120.036 293.918 120.246C293.918 120.246 293.778 121.278 291.819 121.383C290.699 121.436 290.315 120.404 290.315 120.404Z" fill="white"/>
<path d="M298.151 134.005C298.151 134.005 300.11 140.212 306.861 141.628C306.861 141.628 318.003 138.201 312.458 130.614C312.458 130.614 306.983 126.54 298.151 134.005Z" fill="url(#paint6_linear_158_293)"/>
<path d="M241.778 125.963C241.778 125.963 240.326 126.522 241.428 128.411L255.596 126.523C255.596 126.523 255.106 124.337 256.208 124.092L241.778 125.963Z" fill="white"/>
<path d="M246.85 130.614C247.182 129.267 247.165 128.935 246.413 128.113C245.906 127.572 245.136 128.918 244.734 129.722C244.594 129.355 244.331 128.778 244.262 128.743C244.139 128.708 244.436 130.544 244.436 130.544C244.436 130.614 244.419 130.701 244.436 130.771C244.436 130.771 243.824 133.498 246.5 134.967L245.993 133.463C246.29 133.446 246.518 131.977 246.85 130.614Z" fill="#FFAD76"/>
<path d="M291.802 108.201C291.802 108.201 293.9 107.466 294.932 109.617C295.964 111.767 296.279 116.907 300.355 117.327C304.447 117.746 304.605 108.62 304.605 108.62L294.373 104.582L288.968 107.991L291.802 108.201Z" fill="#233862"/>
<path d="M291.801 108.201C291.801 108.201 289.493 108.253 288.968 110.194C288.443 112.134 289.265 115.753 287.988 116.015C286.712 116.278 285.557 109.984 288.023 107.938C290.49 105.893 291.801 108.201 291.801 108.201Z" fill="#233862"/>
<path d="M110.93 74.5288C110.93 74.5288 113.238 73.6547 113.501 73.0603C113.763 72.4658 114.515 72.2036 115.442 71.784C116.352 71.3644 116.912 70.6127 117.034 70.7176C117.174 70.8225 117.191 71.347 116.824 71.7316C116.457 72.1162 114.9 74.8785 114.323 75.1932C113.728 75.4904 110.93 74.5288 110.93 74.5288Z" fill="#FFB27D"/>
<path d="M350.273 195.352H335.441C334.654 194.67 335.983 193.149 337.4 193.044C338.012 192.992 338.782 193.132 339.656 193.307C339.866 190.597 341.021 178.429 345.411 178.918C350.343 179.46 345.411 184.285 344.011 187.135C342.98 189.251 341.895 192.275 341.388 193.709C341.79 193.796 342.21 193.884 342.63 193.953C343.277 191.943 345.726 185.195 348.821 185.579C352.46 186.034 350.99 188.744 348.419 190.352C346.53 191.541 344.204 193.219 343.102 194.023C344.029 194.181 345.008 194.286 346.005 194.251C348.542 194.198 349.783 194.95 350.273 195.352Z" fill="#82B378"/>
<path d="M17.984 195.649C17.984 195.649 12.352 180.177 8.39905 181.506C4.42865 182.817 17.984 195.649 17.984 195.649Z" fill="#82B378"/>
<path d="M15.8327 195.649C15.3604 195.649 6.35268 186.314 5.758 188.761C5.14582 191.209 15.8327 195.649 15.8327 195.649Z" fill="#82B378"/>
<path d="M25.4176 195.649C25.4176 195.649 21.692 192.24 16.987 193.132C12.282 194.023 10.2706 194.985 7.31463 194.321C4.3587 193.656 2.85449 195.649 2.85449 195.649H25.4176Z" fill="#82B378"/>
<path d="M139.352 189.478H111.717C109.618 189.478 107.921 187.782 107.921 185.684V179.355C107.921 177.257 109.618 175.562 111.717 175.562H139.352C141.451 175.562 143.148 177.257 143.148 179.355V185.684C143.13 187.782 141.434 189.478 139.352 189.478Z" fill="#FCECDB"/>
<path d="M134.21 179.024H112.137C111.892 179.024 111.682 178.814 111.682 178.569C111.682 178.324 111.892 178.114 112.137 178.114H134.21C134.455 178.114 134.665 178.324 134.665 178.569C134.665 178.814 134.455 179.024 134.21 179.024Z" fill="#EFCBAB"/>
<path d="M116.055 180.947H112.137C111.892 180.947 111.682 180.738 111.682 180.493C111.682 180.248 111.892 180.038 112.137 180.038H116.055C116.299 180.038 116.509 180.248 116.509 180.493C116.509 180.755 116.299 180.947 116.055 180.947Z" fill="#EFCBAB"/>
<path d="M128.386 180.947H117.611C117.366 180.947 117.156 180.738 117.156 180.493C117.156 180.248 117.366 180.038 117.611 180.038H128.386C128.63 180.038 128.84 180.248 128.84 180.493C128.84 180.755 128.63 180.947 128.386 180.947Z" fill="#EFCBAB"/>
<path d="M134.21 184.531H112.137C111.892 184.531 111.682 184.321 111.682 184.076C111.682 183.831 111.892 183.621 112.137 183.621H134.21C134.455 183.621 134.665 183.831 134.665 184.076C134.665 184.321 134.455 184.531 134.21 184.531Z" fill="#EFCBAB"/>
<path d="M120.147 186.455H112.137C111.892 186.455 111.682 186.245 111.682 186C111.682 185.755 111.892 185.545 112.137 185.545H120.147C120.392 185.545 120.602 185.755 120.602 186C120.602 186.262 120.41 186.455 120.147 186.455Z" fill="#EFCBAB"/>
<path d="M129.907 186.455H121.896C121.652 186.455 121.442 186.245 121.442 186C121.442 185.755 121.652 185.545 121.896 185.545H129.907C130.152 185.545 130.362 185.755 130.362 186C130.344 186.262 130.152 186.455 129.907 186.455Z" fill="#EFCBAB"/>
<defs>
<linearGradient id="paint0_linear_158_293" x1="123.971" y1="49.3836" x2="126.101" y2="82.343" gradientUnits="userSpaceOnUse">
<stop stop-color="#F16237"/>
<stop offset="1" stop-color="#C13014"/>
</linearGradient>
<linearGradient id="paint1_linear_158_293" x1="124.741" y1="58.5252" x2="127.495" y2="90.3342" gradientUnits="userSpaceOnUse">
<stop stop-color="#938581"/>
<stop offset="1" stop-color="#C13014"/>
</linearGradient>
<linearGradient id="paint2_linear_158_293" x1="77.3015" y1="56.3185" x2="78.3246" y2="64.3013" gradientUnits="userSpaceOnUse">
<stop stop-color="#F16237"/>
<stop offset="1" stop-color="#C13014"/>
</linearGradient>
<linearGradient id="paint3_linear_158_293" x1="46.7475" y1="54.059" x2="47.7205" y2="64.9759" gradientUnits="userSpaceOnUse">
<stop stop-color="#F16237"/>
<stop offset="1" stop-color="#C13014"/>
</linearGradient>
<linearGradient id="paint4_linear_158_293" x1="298.4" y1="149.212" x2="302.914" y2="184.146" gradientUnits="userSpaceOnUse">
<stop stop-color="#F16237"/>
<stop offset="1" stop-color="#C13014"/>
</linearGradient>
<linearGradient id="paint5_linear_158_293" x1="297.749" y1="143.057" x2="298.75" y2="156.624" gradientUnits="userSpaceOnUse">
<stop stop-color="#F16237"/>
<stop offset="1" stop-color="#C13014"/>
</linearGradient>
<linearGradient id="paint6_linear_158_293" x1="305.194" y1="133.905" x2="305.621" y2="141.191" gradientUnits="userSpaceOnUse">
<stop stop-color="#F16237"/>
<stop offset="1" stop-color="#C13014"/>
</linearGradient>
</defs>
</svg>
