<svg width="432" height="322" viewBox="0 0 432 322" fill="none" xmlns="http://www.w3.org/2000/svg">
<g opacity="0.1">
<path d="M339.688 227.898L308.898 212.373L308.898 182.185L339.688 197.71L339.688 227.898Z" fill="#00A1AD" stroke="#E0F1F6"/>
<path d="M308.896 273.616L278.107 258.091L278.107 227.903L308.896 243.428L308.896 273.616Z" fill="#00A1AD" stroke="#E0F1F6"/>
<path d="M370.473 213.766L339.683 198.24L339.683 168.052L370.473 183.577L370.473 213.766Z" fill="#00A1AD" fill-opacity="0.3" stroke="#E0F1F6"/>
<path d="M370.473 62.5019L339.683 46.9765L339.683 16.7881L370.473 32.3135L370.473 62.5019Z" fill="#00A1AD" stroke="#E0F1F6"/>
<path d="M278.107 168.057L247.318 152.531L247.318 122.343L278.107 137.869L278.107 168.057Z" fill="#00A1AD" stroke="#E0F1F6"/>
<path d="M247.316 153.09L216.527 137.564L216.527 107.376L247.316 122.901L247.316 153.09Z" fill="#00A1AD" fill-opacity="0.3" stroke="#E0F1F6"/>
<path d="M247.316 92.4227L216.527 76.8972L216.527 46.7089L247.316 62.2343L247.316 92.4227Z" fill="#00A1AD" stroke="#E0F1F6"/>
<path d="M247.316 62.502L216.527 46.9765L216.527 16.7881L247.316 32.3136L247.316 62.502Z" fill="#00A1AD" stroke="#E0F1F6"/>
<path d="M154.951 76.63L124.162 61.1046L124.162 30.9162L154.951 46.4417L154.951 76.63Z" fill="#00A1AD" stroke="#E0F1F6"/>
<path d="M31.7891 48.3646L0.999524 32.8391L0.999527 2.65075L31.7891 18.1762L31.7891 48.3646Z" fill="#00A1AD" stroke="#E0F1F6"/>
<path d="M401.262 259.479L370.472 243.954L370.472 213.765L401.262 229.291L401.262 259.479Z" fill="#00A1AD" stroke="#E0F1F6"/>
<path d="M401.262 320.994L370.472 305.469L370.472 275.281L401.262 290.806L401.262 320.994Z" fill="#00A1AD" stroke="#E0F1F6"/>
<path d="M278.107 227.898L308.897 212.373L308.897 182.185L278.107 197.71L278.107 227.898Z" fill="#00A1AD" fill-opacity="0.3" stroke="#E0F1F6"/>
<path d="M278.107 197.987L308.897 182.461L308.897 152.273L278.107 167.798L278.107 197.987Z" fill="#00A1AD" stroke="#E0F1F6"/>
<path d="M308.896 273.616L339.686 258.091L339.686 227.903L308.896 243.428L308.896 273.616Z" fill="#00A1AD" fill-opacity="0.3" stroke="#E0F1F6"/>
<path d="M339.688 168.057L370.477 152.531L370.477 122.343L339.688 137.868L339.688 168.057Z" fill="#00A1AD" stroke="#E0F1F6"/>
<path d="M278.107 46.7139L308.897 31.1884L308.897 1.00003L278.107 16.5255L278.107 46.7139Z" fill="#00A1AD" stroke="#E0F1F6"/>
<path d="M247.316 273.616L278.106 258.091L278.106 227.903L247.316 243.428L247.316 273.616Z" fill="#00A1AD" fill-opacity="0.3" stroke="#E0F1F6"/>
<path d="M247.316 122.357L278.106 106.832L278.106 76.6435L247.316 92.1689L247.316 122.357Z" fill="#00A1AD" stroke="#E0F1F6"/>
<path d="M247.316 92.4227L278.106 76.8972L278.106 46.7089L247.316 62.2343L247.316 92.4227Z" fill="#00A1AD" stroke="#E0F1F6"/>
<path d="M216.525 198.817L247.315 183.291L247.315 153.103L216.525 168.628L216.525 198.817Z" fill="#00A1AD" fill-opacity="0.3" stroke="#E0F1F6"/>
<path d="M154.951 76.63L185.741 61.1046L185.741 30.9162L154.951 46.4417L154.951 76.63Z" fill="#00A1AD" stroke="#E0F1F6"/>
<path d="M93.3691 107.376L124.159 91.8507L124.159 61.6623L93.3691 77.1878L93.3691 107.376Z" fill="#00A1AD" stroke="#E0F1F6"/>
<path d="M308.896 92.4227L339.686 76.8972L339.686 46.7089L308.896 62.2343L308.896 92.4227Z" fill="#00A1AD" fill-opacity="0.3" stroke="#E0F1F6"/>
<path d="M370.473 243.7L370.473 213.512L401.759 199.233" stroke="#E0F1F6"/>
<path d="M370.473 122.357L401.262 106.832L401.262 76.6435L370.473 92.1689L370.473 122.357Z" fill="#00A1AD" fill-opacity="0.3" stroke="#E0F1F6"/>
<path d="M370.473 92.4227L401.262 76.8972L401.262 46.7089L370.473 62.2343L370.473 92.4227Z" fill="#00A1AD" stroke="#E0F1F6"/>
<path d="M339.688 197.987L308.898 182.461L308.898 152.273L339.688 167.798L339.688 197.987Z" fill="#00A1AD" stroke="#E0F1F6"/>
<path d="M339.688 168.057L308.898 152.531L308.898 122.343L339.688 137.868L339.688 168.057Z" fill="#00A1AD" fill-opacity="0.3" stroke="#E0F1F6"/>
<path d="M400.766 290.244L431.059 274.867L400.766 259.491L370.473 274.867L400.766 290.244Z" fill="#00A1AD" fill-opacity="0.3" stroke="#E0F1F6" stroke-linejoin="bevel"/>
<path d="M216.527 107.376L247.316 92.4153L216.527 77.0388L186.731 91.9997L216.527 107.376Z" fill="#00A1AD" fill-opacity="0.3" stroke="#E0F1F6" stroke-linejoin="bevel"/>
<path d="M217.023 168.472L247.316 153.095L216.527 137.719L186.731 152.68L217.023 168.472Z" fill="#00A1AD" stroke="#E0F1F6" stroke-linejoin="bevel"/>
<path d="M155.441 107.376L185.734 91.9997L154.945 76.6232L125.149 91.5841L155.441 107.376Z" fill="#00A1AD" stroke="#E0F1F6" stroke-linejoin="bevel"/>
</g>
</svg>
