<svg width="128" height="41" viewBox="0 0 128 41" fill="none" xmlns="http://www.w3.org/2000/svg">
<g clip-path="url(#clip0_8203_12435)">
<path d="M53.8055 10.1911C55.3997 10.1911 56.6723 10.3824 57.8905 11.0217C58.853 11.5171 59.5222 12.3805 59.9734 13.2693C60.1989 13.6919 60.2572 14.1983 60.3099 14.7101C60.323 14.8649 60.3023 15.027 60.2929 15.1709L60.2779 15.3038C60.167 16.3748 59.353 17.3311 58.1461 17.3311C56.9393 17.3311 56.0068 16.4094 56.0068 15.2565C56.0068 14.894 56.1441 14.6044 56.2907 14.3695C56.4242 14.1655 56.5821 13.976 56.7099 13.7575C56.8284 13.5444 56.7682 13.1509 56.2099 12.7775C55.6929 12.4315 54.9522 12.2894 54.3864 12.2894C53.1344 12.2894 52.1118 13.2402 52.0554 14.4387C52.0573 14.588 52.0667 16.3584 52.0667 17.158V20.1251H56.0238V22.564H52.1043V40.9967H44.3047V38.4722H46.4891L46.4534 16.9213C46.4534 14.772 47.1809 13.0489 48.7412 11.8942C50.2394 10.7722 51.9257 10.1875 53.8074 10.1875" fill="white"/>
<path d="M111.316 38.7182C109.628 40.4067 107.293 40.9495 104.884 40.9495C102.712 40.9495 101.054 40.4996 99.8925 39.6344C98.6856 38.6946 98.1855 37.1154 98.1855 35.1264V20.1289H103.756V34.9261C103.756 36.6837 104.083 37.6236 104.47 38.0607C104.87 38.5106 105.438 38.7875 106.314 38.7875C107.848 38.7875 109.059 38.1882 109.912 36.9205C110.813 35.5654 111.318 33.9862 111.318 32.1247V22.5678H109.132V20.1471H116.933V40.9987H111.318V38.7164L111.316 38.7182Z" fill="white"/>
<path d="M96.8976 38.7456V40.9987H78.8076L88.7803 22.5678H78.8076V20.1289H96.8976L86.6767 38.7456H96.8976Z" fill="white"/>
<path d="M120.407 13.5717H118.219V11.1328H126.018V41.0003H120.407V13.5717Z" fill="white"/>
<path d="M71.1943 38.7182C69.5099 40.4067 67.1751 40.9495 64.7651 40.9495C62.5882 40.9495 60.9321 40.4996 59.7703 39.6344C58.5653 38.6946 58.0615 37.1154 58.0615 35.1264V20.1289H63.6353V34.9261C63.6353 36.6837 63.9624 37.6236 64.3478 38.0607C64.7482 38.5106 65.3216 38.7875 66.1882 38.7875C67.7297 38.7875 68.9365 38.1882 69.7938 36.9205C70.6905 35.5654 71.1924 33.9862 71.1924 32.1247V22.5678H69.008V20.1289H76.8038V41.0005H71.1924V38.7182H71.1943Z" fill="white"/>
<path d="M125.812 38.5633H128V41.0003H120.2V11.1328H125.812V38.5633Z" fill="white"/>
<path d="M39.5806 17.1249L23.0283 1.08738C22.3046 0.386139 21.344 0 20.3213 0C19.2987 0 18.3381 0.386139 17.6143 1.08738L1.06025 17.1249C0.0150446 18.1376 -0.283854 19.5893 0.281985 20.9135C0.797068 22.1192 1.89679 22.9079 3.20518 23.0409V37.2807C3.20518 39.3261 4.92337 40.9909 7.03446 40.9909H33.6063C35.7174 40.9909 37.4356 39.3261 37.4356 37.2807V23.0409C38.744 22.9097 39.8437 22.1192 40.3588 20.9135C40.9247 19.5893 40.6276 18.1376 39.5806 17.1249Z" fill="#11B5C1"/>
<path d="M30.4596 15.3847C30.2679 15.0842 30.078 14.9986 29.3092 15.0004C27.2808 15.0423 25.2543 15.0824 23.2259 15.1243C24.7918 14.576 26.3559 14.0259 27.9218 13.4777C28.0666 13.434 28.561 13.2628 28.8542 12.771C28.9952 12.536 29.0403 12.312 29.0554 12.1626C29.0516 11.9659 28.9633 11.8166 28.9163 11.7656C28.6136 11.4505 27.606 11.7182 27.4951 11.7437C25.0494 12.4522 22.6056 13.1608 20.1599 13.8693C18.8233 13.6671 17.4867 13.465 16.152 13.2628C15.135 12.3229 14.1161 11.3813 13.0991 10.4414C11.7324 11.7073 10.3676 12.975 9.00098 14.2409C11.3734 15.066 12.2719 16.1479 12.6498 16.9967C12.9637 17.7016 12.8679 18.1168 13.3792 18.9255C14.1048 20.0712 14.6725 19.7834 15.6914 20.9929C16.4321 21.8708 16.5261 22.4901 17.5976 23.5173C17.9792 23.8816 18.2086 24.0291 18.4172 23.9217C18.5432 23.8579 18.718 23.7559 18.7951 23.5811C18.8552 23.4463 18.8815 23.2933 18.9304 23.0055C19.1992 21.41 17.7743 20.5466 17.8815 19.2698C17.9661 18.2626 18.9436 17.3427 20.0884 17.2098C21.2314 17.0768 22.0585 17.8382 22.0924 17.8709C22.1582 17.9329 22.833 18.5941 22.8274 19.543C22.8217 20.4974 22.1224 21.7305 21.9307 22.0857C21.863 22.2114 21.6675 22.5374 21.754 22.9053C21.8047 23.1184 21.9363 23.2696 22.0247 23.3643C22.1055 23.4499 22.1732 23.4736 22.286 23.4991C22.63 23.5756 23.2898 23.0146 23.7278 22.4973C24.1264 22.0274 24.6753 21.379 24.8877 20.3371C25.0701 19.4465 24.9178 18.7033 24.7937 18.2862C24.7542 18.1514 24.7016 18.0021 24.6302 17.8436C24.4911 17.5395 24.3238 17.3008 24.1752 17.1242C25.8615 16.9985 27.5458 16.8728 29.2321 16.7453C29.3392 16.738 30.0855 16.6688 30.3882 16.1242C30.4314 16.0477 30.4728 15.9475 30.4954 15.82C30.5198 15.576 30.4878 15.4339 30.4559 15.3847" fill="white"/>
<path d="M9.47449 15.65L6.86523 13.1219L12.4278 7.73047L15.037 10.2586C15.3904 10.601 15.3904 11.1547 15.037 11.4972L10.7509 15.65C10.3975 15.9924 9.82602 15.9924 9.47261 15.65" fill="#004897"/>
<path d="M28.2485 29.9297H12.202C11.5215 29.9297 10.9707 30.4634 10.9707 31.1209C10.9707 31.7784 11.5215 32.3139 12.202 32.3139H28.2485C28.9272 32.3139 29.478 31.7802 29.478 31.1209C29.478 30.4615 28.9272 29.9297 28.2485 29.9297Z" fill="#004897"/>
<path d="M23.4136 32.3345C23.5358 32.0012 23.6035 31.6424 23.6035 31.2672C23.5979 29.5114 22.1222 28.0961 20.3081 28.1016C18.4959 28.1089 17.0315 29.5369 17.0371 31.2927C17.0371 31.6588 17.1067 32.0067 17.2251 32.3327H23.4136V32.3345Z" fill="white"/>
<path d="M20.8895 26.7557H19.8819C19.7447 26.7557 19.6338 26.6482 19.6338 26.5152V20.6193C19.6338 20.4864 19.7447 20.3789 19.8819 20.3789H20.8895C21.0268 20.3789 21.1377 20.4864 21.1377 20.6193V26.5152C21.1377 26.6482 21.0268 26.7557 20.8895 26.7557Z" fill="white"/>
</g>
<defs>
<clipPath id="clip0_8203_12435">
<rect width="128" height="41" fill="white"/>
</clipPath>
</defs>
</svg>
