<?xml version="1.0" encoding="utf-8"?>
<!-- Generator: Adobe Illustrator 25.0.1, SVG Export Plug-In . SVG Version: 6.00 Build 0)  -->
<svg version="1.0" id="katman_1" xmlns="http://www.w3.org/2000/svg" xmlns:xlink="http://www.w3.org/1999/xlink" x="0px" y="0px"
	 viewBox="0 0 193 123" style="enable-background:new 0 0 193 123;" xml:space="preserve">
<style type="text/css">
	.st0{fill-rule:evenodd;clip-rule:evenodd;fill:#55C5CF;}
	.st1{filter:url(#Adobe_OpacityMaskFilter);}
	.st2{fill-rule:evenodd;clip-rule:evenodd;fill:#FFFFFF;}
	.st3{mask:url(#_x34_irktvrdob_1_);fill-rule:evenodd;clip-rule:evenodd;fill:#004896;}
	.st4{filter:url(#Adobe_OpacityMaskFilter_1_);}
	.st5{mask:url(#_x38_3lut4xzgd_1_);fill-rule:evenodd;clip-rule:evenodd;fill:#004896;}
	.st6{fill-rule:evenodd;clip-rule:evenodd;fill:#004896;}
	.st7{filter:url(#Adobe_OpacityMaskFilter_2_);}
	.st8{mask:url(#_x38_nesbe5vif_1_);fill-rule:evenodd;clip-rule:evenodd;fill:#004896;}
	.st9{filter:url(#Adobe_OpacityMaskFilter_3_);}
	.st10{mask:url(#_x33_gi3trnyhh_1_);fill-rule:evenodd;clip-rule:evenodd;fill:#55C5CF;}
</style>
<g>
	<g>
		<g>
			<path class="st0" d="M16,51.4l14.1,14.1L16,79.5C21.3,70.9,21.2,60,16,51.4"/>
			<path class="st0" d="M41.3,65.5L27.2,79.5c5.2-8.6,5.2-19.5,0-28.1L41.3,65.5L41.3,65.5z"/>
			<g transform="translate(-167 -57) translate(167 57) translate(29.117 .173)">
				<defs>
					<filter id="Adobe_OpacityMaskFilter" filterUnits="userSpaceOnUse" x="16.2" y="43.4" width="18.2" height="36">
						<feColorMatrix  type="matrix" values="1 0 0 0 0  0 1 0 0 0  0 0 1 0 0  0 0 0 1 0"/>
					</filter>
				</defs>
				<mask maskUnits="userSpaceOnUse" x="16.2" y="43.4" width="18.2" height="36" id="_x34_irktvrdob_1_">
					<g class="st1">
						<path id="_x39_p47a256ua_1_" class="st2" d="M16.2,43.4h18.2v36H16.2V43.4z"/>
					</g>
				</mask>
				<path class="st3" d="M27,43.4c1.8,0,3.3,0.2,4.6,1C32.8,45,33.5,46,34,47c0.3,0.5,0.3,1.1,0.4,1.7c0,0.2,0,0.4,0,0.5l0,0.2
					c-0.1,1.3-1,2.4-2.4,2.4c-1.3,0-2.4-1.1-2.4-2.4c0-0.4,0.2-0.8,0.3-1c0.1-0.2,0.3-0.5,0.5-0.7c0.1-0.2,0.1-0.7-0.6-1.1
					c-0.6-0.4-1.4-0.6-2.1-0.6c-1.4,0-2.6,1.1-2.6,2.5c0,0.2,0,2.2,0,3.2V55h4.5v2.8h-4.5v21.6h-8.9v-3h2.5l0-25.2
					c0-2.5,0.8-4.5,2.6-5.9C23,44.1,24.9,43.4,27,43.4"/>
			</g>
			<g transform="translate(-167 -57) translate(167 57) translate(87.922 12.127)">
				<defs>
					<filter id="Adobe_OpacityMaskFilter_1_" filterUnits="userSpaceOnUse" x="16.1" y="43.1" width="21.3" height="24.4">
						<feColorMatrix  type="matrix" values="1 0 0 0 0  0 1 0 0 0  0 0 1 0 0  0 0 0 1 0"/>
					</filter>
				</defs>
				<mask maskUnits="userSpaceOnUse" x="16.1" y="43.1" width="21.3" height="24.4" id="_x38_3lut4xzgd_1_">
					<g class="st4">
						<path id="tmxmb5hdjc_1_" class="st2" d="M16.1,43.1h21.3v24.4H16.1V43.1z"/>
					</g>
				</mask>
				<path class="st5" d="M31.1,64.8c-1.9,2-4.6,2.6-7.3,2.6c-2.5,0-4.4-0.5-5.7-1.5c-1.4-1.1-1.9-2.9-1.9-5.3V43.1h6.3v17.3
					c0,2.1,0.4,3.2,0.8,3.7c0.5,0.5,1.1,0.8,2.1,0.8c1.7,0,3.1-0.7,4.1-2.2c1-1.6,1.6-3.4,1.6-5.6V45.9h-2.5v-2.8h8.9v24.4h-6.4
					V64.8z"/>
			</g>
			<path class="st6" d="M102.9,77v2.6H82.4L93.7,58H82.4v-2.8h20.6L91.3,77H102.9z M128.1,47.5h-2.5v-2.8h8.9v34.9h-6.4V47.5z"/>
			<g transform="translate(-167 -57) translate(167 57) translate(43.39 12.127)">
				<defs>
					<filter id="Adobe_OpacityMaskFilter_2_" filterUnits="userSpaceOnUse" x="16.3" y="43.1" width="21.3" height="24.4">
						<feColorMatrix  type="matrix" values="1 0 0 0 0  0 1 0 0 0  0 0 1 0 0  0 0 0 1 0"/>
					</filter>
				</defs>
				<mask maskUnits="userSpaceOnUse" x="16.3" y="43.1" width="21.3" height="24.4" id="_x38_nesbe5vif_1_">
					<g class="st7">
						<path id="kshgz5eeke_1_" class="st2" d="M16.3,43.1h21.3v24.4H16.3V43.1z"/>
					</g>
				</mask>
				<path class="st8" d="M31.3,64.8c-1.9,2-4.6,2.6-7.3,2.6c-2.5,0-4.4-0.5-5.7-1.5c-1.4-1.1-1.9-2.9-1.9-5.3V43.1h6.3v17.3
					c0,2.1,0.4,3.2,0.8,3.7c0.5,0.5,1.1,0.8,2.1,0.8c1.7,0,3.1-0.7,4.1-2.2c1-1.6,1.6-3.4,1.6-5.6V45.9h-2.5v-2.8h8.9v24.4h-6.4
					C31.3,67.5,31.3,64.8,31.3,64.8z"/>
			</g>
			<path class="st0" d="M137,79.6V55.2h18v4.5h-13.1V65h9.8v4.5h-9.8V75h13.1v4.6H137z"/>
			<g transform="translate(-167 -57) translate(167 57) translate(135.88 12.127)">
				<defs>
					<filter id="Adobe_OpacityMaskFilter_3_" filterUnits="userSpaceOnUse" x="16.5" y="43.1" width="24.5" height="24.4">
						<feColorMatrix  type="matrix" values="1 0 0 0 0  0 1 0 0 0  0 0 1 0 0  0 0 0 1 0"/>
					</filter>
				</defs>
				<mask maskUnits="userSpaceOnUse" x="16.5" y="43.1" width="24.5" height="24.4" id="_x33_gi3trnyhh_1_">
					<g class="st9">
						<path id="_x31_in501uh1g_1_" class="st2" d="M16.5,43.1H41v24.4H16.5V43.1z"/>
					</g>
				</mask>
				<path class="st10" d="M21.7,43.1L28.7,61l7.1-17.9H41l-9.8,24.4h-4.9l-9.8-24.4H21.7z"/>
			</g>
			<path class="st0" d="M166.7,58h5.8v-2.8h-5.8V58z"/>
		</g>
	</g>
</g>
</svg>
