<svg width="128" height="41" viewBox="0 0 128 41" fill="none" xmlns="http://www.w3.org/2000/svg">
<g clip-path="url(#clip0_522_5058)">
<path d="M53.8055 10.1911C55.3997 10.1911 56.6723 10.3824 57.8905 11.0217C58.853 11.5171 59.5222 12.3805 59.9734 13.2693C60.1989 13.6919 60.2572 14.1983 60.3099 14.7101C60.323 14.8649 60.3023 15.027 60.2929 15.1709L60.2779 15.3038C60.167 16.3748 59.353 17.3311 58.1461 17.3311C56.9393 17.3311 56.0068 16.4094 56.0068 15.2565C56.0068 14.894 56.1441 14.6044 56.2907 14.3695C56.4242 14.1655 56.5821 13.976 56.7099 13.7575C56.8284 13.5444 56.7682 13.1509 56.2099 12.7775C55.6929 12.4315 54.9522 12.2894 54.3864 12.2894C53.1344 12.2894 52.1118 13.2402 52.0554 14.4387C52.0573 14.588 52.0667 16.3584 52.0667 17.158V20.1251H56.0238V22.564H52.1043V40.9967H44.3047V38.4722H46.4891L46.4534 16.9213C46.4534 14.772 47.1809 13.0489 48.7412 11.8942C50.2394 10.7722 51.9257 10.1875 53.8074 10.1875" fill="#004897"/>
<path d="M111.314 38.7182C109.626 40.4067 107.292 40.9495 104.882 40.9495C102.71 40.9495 101.052 40.4996 99.8905 39.6344C98.6836 38.6946 98.1836 37.1154 98.1836 35.1264V20.1289H103.754V34.9261C103.754 36.6837 104.081 37.6236 104.468 38.0607C104.868 38.5106 105.436 38.7875 106.312 38.7875C107.846 38.7875 109.057 38.1882 109.91 36.9205C110.811 35.5654 111.316 33.9862 111.316 32.1247V22.5678H109.13V20.1471H116.931V40.9987H111.316V38.7164L111.314 38.7182Z" fill="#004897"/>
<path d="M96.8985 38.7456V40.9987H78.8086L88.7813 22.5678H78.8086V20.1289H96.8985L86.6777 38.7456H96.8985Z" fill="#004897"/>
<path d="M120.407 13.5717H118.219V11.1328H126.018V41.0003H120.407V13.5717Z" fill="#004897"/>
<path d="M71.1952 38.7182C69.5109 40.4067 67.1761 40.9495 64.7661 40.9495C62.5892 40.9495 60.9331 40.4996 59.7713 39.6344C58.5663 38.6946 58.0625 37.1154 58.0625 35.1264V20.1289H63.6363V34.9261C63.6363 36.6837 63.9634 37.6236 64.3488 38.0607C64.7492 38.5106 65.3225 38.7875 66.1892 38.7875C67.7306 38.7875 68.9375 38.1882 69.7947 36.9205C70.6914 35.5654 71.1934 33.9862 71.1934 32.1247V22.5678H69.009V20.1289H76.8048V41.0005H71.1934V38.7182H71.1952Z" fill="#004897"/>
<path d="M125.811 38.5633H127.999V41.0003H120.199V11.1328H125.811V38.5633Z" fill="#004897"/>
<path d="M39.5806 17.1249L23.0283 1.08738C22.3046 0.386139 21.344 0 20.3213 0C19.2987 0 18.3381 0.386139 17.6143 1.08738L1.06025 17.1249C0.0150446 18.1376 -0.283854 19.5893 0.281985 20.9135C0.797068 22.1192 1.89679 22.9079 3.20518 23.0409V37.2807C3.20518 39.3261 4.92337 40.9909 7.03446 40.9909H33.6063C35.7174 40.9909 37.4356 39.3261 37.4356 37.2807V23.0409C38.744 22.9097 39.8437 22.1192 40.3588 20.9135C40.9247 19.5893 40.6276 18.1376 39.5806 17.1249Z" fill="#11B5C1"/>
<path d="M30.4587 15.3847C30.2669 15.0842 30.077 14.9986 29.3082 15.0004C27.2798 15.0423 25.2533 15.0824 23.2249 15.1243C24.7909 14.576 26.3549 14.0259 27.9208 13.4777C28.0656 13.434 28.56 13.2628 28.8533 12.771C28.9942 12.536 29.0394 12.312 29.0544 12.1626C29.0506 11.9659 28.9623 11.8166 28.9153 11.7656C28.6126 11.4505 27.605 11.7182 27.4941 11.7437C25.0484 12.4522 22.6046 13.1608 20.1589 13.8693C18.8223 13.6671 17.4857 13.465 16.151 13.2628C15.134 12.3229 14.1151 11.3813 13.0981 10.4414C11.7314 11.7073 10.3667 12.975 9 14.2409C11.3724 15.066 12.271 16.1479 12.6488 16.9967C12.9628 17.7016 12.8669 18.1168 13.3782 18.9255C14.1038 20.0712 14.6716 19.7834 15.6904 20.9929C16.4311 21.8708 16.5251 22.4901 17.5966 23.5173C17.9782 23.8816 18.2076 24.0291 18.4162 23.9217C18.5422 23.8579 18.717 23.7559 18.7941 23.5811C18.8543 23.4463 18.8806 23.2933 18.9294 23.0055C19.1983 21.41 17.7733 20.5466 17.8805 19.2698C17.9651 18.2626 18.9426 17.3427 20.0874 17.2098C21.2304 17.0768 22.0575 17.8382 22.0914 17.8709C22.1572 17.9329 22.832 18.5941 22.8264 19.543C22.8208 20.4974 22.1215 21.7305 21.9297 22.0857C21.862 22.2114 21.6665 22.5374 21.753 22.9053C21.8038 23.1184 21.9354 23.2696 22.0237 23.3643C22.1045 23.4499 22.1722 23.4736 22.285 23.4991C22.629 23.5756 23.2889 23.0146 23.7269 22.4973C24.1254 22.0274 24.6743 21.379 24.8867 20.3371C25.0691 19.4465 24.9168 18.7033 24.7927 18.2862C24.7533 18.1514 24.7006 18.0021 24.6292 17.8436C24.4901 17.5395 24.3228 17.3008 24.1743 17.1242C25.8605 16.9985 27.5449 16.8728 29.2311 16.7453C29.3383 16.738 30.0846 16.6688 30.3872 16.1242C30.4305 16.0477 30.4718 15.9475 30.4944 15.82C30.5188 15.576 30.4869 15.4339 30.4549 15.3847" fill="white"/>
<path d="M9.47644 15.65L6.86719 13.1219L12.4297 7.73047L15.039 10.2586C15.3924 10.601 15.3924 11.1547 15.039 11.4972L10.7529 15.65C10.3995 15.9924 9.82797 15.9924 9.47456 15.65" fill="#004897"/>
<path d="M28.2505 29.9297H12.204C11.5235 29.9297 10.9727 30.4634 10.9727 31.1209C10.9727 31.7784 11.5235 32.3139 12.204 32.3139H28.2505C28.9291 32.3139 29.4799 31.7802 29.4799 31.1209C29.4799 30.4615 28.9291 29.9297 28.2505 29.9297Z" fill="#004897"/>
<path d="M23.4156 32.3345C23.5378 32.0012 23.6054 31.6424 23.6054 31.2672C23.5998 29.5114 22.1241 28.0961 20.31 28.1016C18.4979 28.1089 17.0334 29.5369 17.0391 31.2927C17.0391 31.6588 17.1086 32.0067 17.2271 32.3327H23.4156V32.3345Z" fill="white"/>
<path d="M20.8886 26.7557H19.881C19.7437 26.7557 19.6328 26.6482 19.6328 26.5152V20.6193C19.6328 20.4864 19.7437 20.3789 19.881 20.3789H20.8886C21.0258 20.3789 21.1367 20.4864 21.1367 20.6193V26.5152C21.1367 26.6482 21.0258 26.7557 20.8886 26.7557Z" fill="white"/>
</g>
<defs>
<clipPath id="clip0_522_5058">
<rect width="128" height="41" fill="white"/>
</clipPath>
</defs>
</svg>
