<svg width="287" height="367" viewBox="0 0 287 367" fill="none" xmlns="http://www.w3.org/2000/svg">
<path d="M88.4885 297.315C88.6731 297.477 88.9109 297.499 89.0268 297.366C89.1427 297.234 89.0904 297.001 88.9058 296.839C88.7211 296.677 88.4834 296.655 88.3675 296.788C88.2516 296.92 88.3105 297.159 88.4885 297.315ZM85.1625 296.572C85.7097 297.053 86.4288 297.111 86.7765 296.713C87.1241 296.316 86.9664 295.604 86.4257 295.13C85.8785 294.649 85.1594 294.592 84.8117 294.989C84.4517 295.387 84.6152 296.092 85.1625 296.572ZM63.7296 275.065C64.1516 275.435 64.7022 275.485 64.9746 275.174C65.2411 274.87 65.1185 274.318 64.7031 273.953C64.2878 273.588 63.7305 273.532 63.4582 273.843C63.1858 274.154 63.3076 274.694 63.7296 275.065ZM96.1429 332.653C97.0763 332.173 97.9357 331.511 98.6658 330.677C101.812 327.084 101.461 321.626 97.8813 318.483C97.8615 318.466 97.8417 318.448 97.8153 318.425C98.1157 318.162 98.4086 317.881 98.6752 317.576C101.822 313.983 101.471 308.525 97.8906 305.382C96.8423 304.462 95.6331 303.845 94.3746 303.524L94.4268 303.465C93.4597 303.131 92.4913 303.065 91.6585 303.27C91.6461 303.271 91.6213 303.273 91.6089 303.273C91.2092 302.571 90.6682 301.897 89.9891 301.301C88.9078 300.352 87.6697 299.768 86.4877 299.573C86.3878 299.181 86.1435 298.768 85.7677 298.438C85.0359 297.796 84.07 297.673 83.5463 298.138C82.7392 297.196 81.5822 296.519 80.4058 296.411C80.0739 296.377 79.7584 296.405 79.4759 296.461C79.574 295.763 79.7269 294.949 79.9644 293.999C80.0647 294.204 80.2153 294.418 80.4131 294.592C81.0065 295.113 81.8015 295.19 82.1839 294.753C82.5664 294.317 82.3922 293.544 81.7923 293.017C81.3242 292.606 80.7374 292.477 80.3192 292.648C82.6212 284.533 121.098 232.738 143.601 204.563L142.966 203.971L142.913 203.924L142.86 203.878L142.19 203.325C117.578 228.993 71.6073 274.232 63.7807 277.696C63.0297 277.142 62.1066 277.104 61.6488 277.627C61.417 277.892 61.3411 278.258 61.4096 278.646C60.084 279.121 59.0496 279.384 58.2872 279.522C58.1547 279.3 57.9851 279.081 57.7675 278.89C57.4511 278.612 57.0972 278.43 56.7432 278.342C57.3561 276.75 56.693 274.564 55.008 272.933C56.1961 268.873 55.0263 264.322 51.6507 261.359C47.0026 257.279 39.9291 257.752 35.8437 262.418C33.8851 264.654 32.9705 267.456 33.0668 270.21C29.8318 270.108 26.5689 271.411 24.2625 274.045C21.1333 277.618 20.6705 282.608 22.7054 286.583C22.2694 286.961 21.8539 287.369 21.4657 287.812C17.0152 292.894 17.5125 300.623 22.5759 305.068C23.5517 305.924 24.6212 306.594 25.7538 307.085C23.0718 314.902 25.1557 323.895 31.7356 329.671C39.9043 336.842 52.0864 336.487 59.8653 329.189C60.589 332.025 62.1528 334.673 64.5131 336.745C69.0227 340.704 75.2306 341.472 80.3997 339.245C80.7997 340.919 81.7037 342.496 83.0948 343.718C86.6748 346.861 92.1255 346.496 95.2721 342.902C97.845 339.964 98.0806 335.793 96.1429 332.653ZM58.1678 278.633C58.8732 279.252 59.8119 279.339 60.2639 278.823C60.7159 278.306 60.5074 277.386 59.8019 276.767C59.0965 276.147 58.1578 276.061 57.7058 276.577C57.2538 277.093 57.4623 278.014 58.1678 278.633ZM56.3406 273.728C56.6043 273.96 56.9486 273.993 57.1166 273.801C57.2847 273.609 57.207 273.271 56.9432 273.04C56.6795 272.808 56.3353 272.775 56.1672 272.967C56.0116 273.158 56.0835 273.502 56.3406 273.728Z" fill="url(#paint0_linear_158_1374)"/>
<g clip-path="url(#clip0_158_1374)">
<path d="M134.647 198.067L140.853 205.502L149.25 210.256C150.953 211.231 151.562 213.547 150.467 215.131L131.727 242.556C131.727 242.556 123.574 234.146 120.166 231.342C116.759 228.417 106.537 221.591 106.537 221.591L129.901 197.823C131.118 196.361 133.43 196.604 134.647 198.067Z" fill="#123F8C"/>
<path d="M166.773 174.421C165.921 191.363 151.197 214.156 151.197 214.156C143.044 210.499 135.986 204.527 130.875 197.214C130.753 197.092 150.953 177.956 166.773 174.421Z" fill="#FF3C00"/>
<path d="M151.075 214.156C151.075 214.156 154.726 208.915 149.25 217.081C134.526 239.265 131.727 242.556 131.727 242.556C131.727 242.556 126.007 235.73 120.166 231.342C120.166 231.342 127.833 222.323 138.785 209.281C139.271 208.671 139.758 208.062 140.245 207.452C143.53 210.134 147.181 212.328 151.075 214.156Z" fill="#7166FE"/>
<path d="M140.245 207.33C150.71 194.41 160.567 176.737 161.297 176.005C163.122 175.274 164.947 174.665 166.651 174.299C166.651 174.421 166.651 174.543 166.651 174.786C166.529 176.615 165.556 184.05 161.053 195.142C156.551 205.624 151.075 214.034 151.075 214.034C147.181 212.328 143.53 210.134 140.245 207.33Z" fill="#DD2400"/>
<path d="M131.679 242.524C132.238 241.851 127.036 236.597 120.059 230.788C113.082 224.979 106.973 220.815 106.413 221.487C105.854 222.159 111.057 227.413 118.033 233.222C125.01 239.032 131.12 243.196 131.679 242.524Z" fill="#A199F9"/>
<path d="M160.671 160.836L181.359 178.235L212.892 140.618L192.204 123.219L160.671 160.836Z" fill="#FF3C00"/>
<path d="M187.338 156.016C187.338 156.016 188.433 154.675 187.825 153.578C187.216 152.481 177.481 143.827 177.481 143.827C177.481 143.827 189.528 151.384 192.084 153.578C194.639 155.772 196.586 160.16 196.586 160.16L194.761 162.232L187.338 156.016Z" fill="#BA2700"/>
<path d="M169.937 134.076L202.305 161.013L205.834 164.426L232.727 132.492L196.708 102.264L169.937 134.076Z" fill="#3D34F4"/>
<path d="M136.351 189.657L157.159 207.087L194.761 162.232L173.952 144.802L136.351 189.657Z" fill="#123F8C"/>
<path opacity="0.32" d="M182.714 152.115C182.714 152.115 182.227 157.722 178.576 163.451C174.926 169.302 146.694 198.311 146.694 198.311L157.038 207.087L194.639 162.232L182.714 152.115Z" fill="#00898D"/>
<path d="M229.198 72.6449L241.367 86.9057L257.43 96.4129C260.837 98.3631 262.054 102.507 260.107 105.311L226.765 153.578C226.765 153.578 211.067 137.489 204.374 131.882C197.681 126.275 178.333 112.746 178.333 112.746L220.072 71.5479C222.384 69.232 226.643 69.7196 229.198 72.6449Z" fill="url(#paint1_linear_158_1374)"/>
<path d="M287 36.4443C284.445 66.7943 260.837 103.604 260.837 103.604C245.261 96.0473 231.754 84.7118 221.654 70.5728C221.654 70.5728 254.875 40.3447 283.106 33.1534C285.296 32.5439 287.243 34.2504 287 36.4443Z" fill="#123F8C"/>
<path d="M226.643 153.7L217.638 150.409C217.638 150.409 209.485 141.999 200.967 135.051C189.893 125.91 181.619 120.181 181.619 120.181L178.211 112.99L180.28 114.208C197.925 124.569 213.622 137.977 226.643 153.7Z" fill="#004345"/>
<path d="M196.586 160.16C196.586 160.16 193.179 156.26 187.216 151.262C179.306 144.68 175.899 142.73 175.899 142.73L173.587 137.123C184.296 143.705 194.152 151.872 202.549 161.257L196.586 160.16Z" fill="#004345"/>
<path opacity="0.32" d="M258.038 102.02C242.341 130.054 226.765 153.7 226.765 153.7C226.765 153.7 219.585 145.534 215.326 141.268C209.12 135.051 206.321 132.857 206.321 132.857C206.321 132.857 222.992 118.84 243.679 93.0001C248.182 96.2911 252.927 99.3383 258.038 102.02Z" fill="#7D73F2"/>
<path d="M249.764 85.0774C261.446 69.5977 280.064 39.9791 285.053 36.2006C285.54 35.8349 286.27 36.2006 286.148 36.81C285.661 41.4417 282.254 64.1128 263.149 94.0971C261.446 96.7786 259.742 99.4601 258.038 102.02C252.927 99.3382 248.182 96.4129 243.679 93.0001C245.626 90.4405 247.695 87.7589 249.764 85.0774Z" fill="#7D73F2"/>
<path d="M236.712 120.481C243.324 112.594 242.3 100.831 234.426 94.2087C226.551 87.5862 214.808 88.6115 208.196 96.4988C201.585 104.386 202.608 116.149 210.483 122.771C218.357 129.394 230.1 128.368 236.712 120.481Z" fill="#F26338"/>
<path opacity="0.32" d="M191.232 150.043C191.232 150.043 195.369 143.583 194.883 136.636C194.517 131.76 190.137 127.007 187.581 124.569C186.486 123.472 185.634 122.984 185.634 122.984C185.634 122.984 198.411 132.613 204.739 138.22C211.067 143.949 217.516 150.409 217.516 150.409L205.713 164.426C205.834 164.426 196.343 154.431 191.232 150.043Z" fill="#6C70E7"/>
<path d="M229.817 139.136L252.903 112.403L249.958 109.851L226.872 136.584L229.817 139.136Z" fill="#004345"/>
<path d="M249.423 115.168L251.572 112.68L248.904 110.368L246.755 112.856L249.423 115.168Z" fill="#FFD400"/>
<path d="M246.589 118.367L248.738 115.879L246.07 113.567L243.921 116.055L246.589 118.367Z" fill="#FFD400"/>
<path d="M243.757 121.573L245.906 119.084L243.238 116.773L241.089 119.261L243.757 121.573Z" fill="#FFD400"/>
<path d="M241.013 124.846L243.161 122.358L240.493 120.046L238.344 122.534L241.013 124.846Z" fill="#FFD400"/>
<path d="M238.178 128.045L240.327 125.556L237.659 123.244L235.51 125.733L238.178 128.045Z" fill="#FFD400"/>
<path d="M235.436 131.324L237.585 128.835L234.917 126.523L232.768 129.012L235.436 131.324Z" fill="#FFD400"/>
<path d="M232.606 134.53L234.755 132.041L232.086 129.729L229.937 132.218L232.606 134.53Z" fill="#FFD400"/>
<path d="M229.864 137.809L232.012 135.32L229.344 133.008L227.195 135.497L229.864 137.809Z" fill="#FFD400"/>
<mask id="mask0_158_1374" style="mask-type:alpha" maskUnits="userSpaceOnUse" x="222" y="34" width="63" height="42">
<path d="M279.699 38.0283C279.699 38.0283 257.917 48.145 243.557 58.993C229.198 69.841 225.426 75.0821 225.426 75.0821L222.627 71.0598C222.627 71.0598 239.663 54.605 259.255 45.0978C278.847 35.5906 284.688 33.1528 284.079 34.4936C283.471 35.9563 279.699 38.0283 279.699 38.0283Z" fill="url(#paint2_linear_158_1374)"/>
</mask>
<g mask="url(#mask0_158_1374)">
<path opacity="0.66" d="M279.699 38.0283C279.699 38.0283 257.917 48.145 243.557 58.993C229.198 69.841 225.426 75.0821 225.426 75.0821L222.627 71.0598C222.627 71.0598 239.663 54.605 259.255 45.0978C278.847 35.5906 284.688 33.1528 284.079 34.4936C283.471 35.9563 279.699 38.0283 279.699 38.0283Z" fill="url(#paint3_linear_158_1374)"/>
</g>
<mask id="mask1_158_1374" style="mask-type:alpha" maskUnits="userSpaceOnUse" x="181" y="73" width="46" height="45">
<path d="M226.034 78.3736C226.034 78.3736 214.718 89.2216 206.686 97.5099C198.655 105.798 188.555 117.865 188.555 117.865L181.375 112.99C181.375 112.99 198.29 96.0473 208.998 85.6869C218.612 76.3015 222.262 73.1324 222.262 73.1324L226.034 78.3736Z" fill="url(#paint4_linear_158_1374)"/>
</mask>
<g mask="url(#mask1_158_1374)">
<path opacity="0.66" d="M226.034 78.3736C226.034 78.3736 214.718 89.2216 206.686 97.5099C198.655 105.798 188.555 117.865 188.555 117.865L181.375 112.99C181.375 112.99 198.29 96.0473 208.998 85.6869C218.612 76.3015 222.262 73.1324 222.262 73.1324L226.034 78.3736Z" fill="#CBC7FA"/>
<path d="M219.95 98.9718C223.479 94.34 228.468 94.9495 232.362 98.4842C236.378 102.019 237.838 107.138 234.309 111.77C234.066 112.136 233.701 112.501 233.458 112.745C232.727 113.598 231.876 114.208 230.902 114.695C230.537 114.817 230.294 115.061 229.929 115.183C228.225 115.914 223.966 117.255 222.384 118.108C220.072 119.327 217.76 121.765 216.786 122.74C216.543 123.105 216.178 123.349 215.813 123.471L215.326 123.715C214.718 123.959 214.109 123.837 213.623 123.471L209.85 120.424C209.242 119.936 209.242 118.961 209.85 118.474C211.919 116.645 216.178 112.745 216.786 110.185C217.638 106.651 217.395 102.75 219.22 100.191C219.342 99.825 219.585 99.3374 219.95 98.9718Z" fill="#BA2700"/>
<path d="M217.638 97.0224C221.167 92.3907 226.156 93.0001 230.05 96.5349C234.066 100.07 235.526 105.189 231.997 109.821C231.754 110.186 231.389 110.552 231.145 110.796C230.415 111.649 229.563 112.258 228.59 112.746C228.225 112.868 227.981 113.112 227.616 113.233C225.913 113.965 224.087 114.452 222.506 115.306C219.463 116.768 219.342 117.621 219.342 117.621L216.178 114.818L213.014 112.015C213.014 112.015 213.744 111.771 214.474 108.236C215.326 104.701 215.083 100.801 216.908 98.2413C217.151 97.8756 217.395 97.3881 217.638 97.0224Z" fill="#FFD400"/>
<path d="M213.501 111.283C213.501 111.283 214.231 113.112 216.178 114.818C218.125 116.524 219.95 117.012 219.95 117.012C219.95 117.012 220.315 118.84 219.707 118.962C219.22 119.084 219.098 118.962 219.098 118.962C219.098 118.962 216.543 122.741 214.961 122.863C213.501 122.984 211.675 121.278 211.432 121.034C211.189 120.79 209.363 119.328 209.242 117.743C209.12 116.037 212.04 112.624 212.04 112.624C212.04 112.624 211.919 112.624 211.919 112.015C211.797 111.283 213.501 111.283 213.501 111.283Z" fill="url(#paint5_linear_158_1374)"/>
<path d="M217.881 116.281C218.247 115.793 220.559 113.112 222.749 110.796C222.506 110.43 222.384 109.942 222.262 109.333C222.019 109.455 221.654 109.455 221.41 109.455C221.045 109.455 220.68 109.211 220.437 108.967L221.045 108.602C221.167 108.724 221.289 108.845 221.41 108.845C221.654 108.845 221.897 108.845 222.141 108.724C222.141 108.236 222.262 107.748 222.627 107.261C223.114 106.53 223.966 105.433 224.696 105.433C224.818 105.433 225.061 105.555 225.183 105.676C225.548 106.286 224.696 107.627 224.088 108.358C223.722 108.724 223.357 108.967 222.992 109.211C222.992 109.577 223.114 110.064 223.357 110.43C224.818 108.967 226.156 107.748 226.886 107.505C227.86 107.139 228.225 107.627 228.347 107.87C228.833 108.845 227.616 110.552 225.548 111.893C224.818 112.38 224.209 112.258 223.844 112.015C223.601 111.893 223.479 111.771 223.236 111.527C221.41 113.477 219.463 115.671 218.49 116.89L217.881 116.281ZM227.008 107.992C226.4 108.236 225.061 109.333 223.722 110.796C223.844 110.918 223.966 111.039 224.088 111.161C224.453 111.283 224.696 111.283 225.183 111.039C227.251 109.699 227.86 108.236 227.738 107.992C227.738 107.992 227.738 107.992 227.616 107.992C227.495 107.87 227.251 107.87 227.008 107.992ZM223.236 107.505C223.114 107.748 222.992 107.87 222.992 108.114C223.114 107.992 223.357 107.87 223.479 107.627C224.088 107.017 224.331 106.408 224.453 106.042C224.209 106.408 223.722 106.895 223.236 107.505Z" fill="black"/>
<path d="M214.231 113.112C215.083 111.771 216.786 109.333 218.247 107.017C218.125 106.895 217.881 106.773 217.76 106.652C217.516 106.286 217.151 105.676 217.516 104.701C218.247 102.385 219.707 100.801 220.68 101.045C221.045 101.045 221.41 101.41 221.289 102.507C221.167 103.361 220.315 104.945 219.342 106.773C219.707 106.895 220.072 106.895 220.437 106.895C220.559 106.53 220.68 106.042 220.924 105.676C221.41 104.823 222.627 103.726 223.236 103.97C223.357 104.092 223.479 104.214 223.601 104.336C223.722 104.945 222.749 106.286 222.262 106.773C221.897 107.139 221.532 107.505 221.045 107.627C221.045 107.992 221.045 108.236 221.045 108.48C221.045 108.602 221.167 108.846 221.289 108.846L220.924 109.455C220.68 109.333 220.437 108.967 220.315 108.602C220.194 108.358 220.194 107.992 220.194 107.627C219.707 107.627 219.22 107.505 218.855 107.383C217.03 110.308 214.961 113.355 214.718 113.599L214.231 113.112ZM220.437 101.654C220.072 101.532 218.977 102.629 218.125 104.823C218.003 105.311 218.003 105.798 218.247 106.164C218.368 106.286 218.368 106.286 218.49 106.408C219.585 104.701 220.315 103.117 220.437 102.385C220.68 101.776 220.559 101.654 220.437 101.654ZM221.532 105.92C221.41 106.164 221.289 106.408 221.167 106.53C221.289 106.408 221.532 106.286 221.654 106.164C222.262 105.433 222.627 104.945 222.749 104.579C222.384 104.701 221.897 105.189 221.532 105.92Z" fill="black"/>
<path d="M218.855 119.084C218.977 119.084 219.22 119.084 219.22 118.84C219.342 118.596 219.22 118.475 218.977 118.353C218.977 118.353 217.395 117.743 215.326 115.915C213.257 114.087 212.284 112.258 212.284 112.258C212.162 112.136 211.919 112.015 211.797 112.136C211.675 112.258 211.554 112.502 211.675 112.624C211.675 112.746 212.771 114.574 214.961 116.524C217.03 118.353 218.733 119.084 218.855 119.084C218.855 119.084 218.733 119.084 218.855 119.084Z" fill="black"/>
<path d="M216.786 120.059C216.908 120.059 217.151 120.059 217.151 119.815C217.273 119.693 217.151 119.45 216.908 119.328C216.908 119.328 215.083 118.475 213.744 117.134C212.405 115.671 211.919 114.696 211.919 114.696C211.797 114.574 211.675 114.452 211.432 114.574C211.31 114.696 211.189 114.818 211.31 115.062C211.31 115.062 211.797 116.159 213.257 117.743C214.718 119.206 216.665 119.937 216.786 120.059Z" fill="black"/>
<path d="M216.178 120.79C216.3 120.79 216.543 120.79 216.543 120.547C216.665 120.425 216.543 120.181 216.299 120.059C216.299 120.059 214.474 119.206 213.136 117.865C211.797 116.402 211.31 115.427 211.31 115.427C211.189 115.305 211.067 115.184 210.824 115.305C210.702 115.427 210.58 115.549 210.702 115.793C210.702 115.793 211.189 116.89 212.649 118.475C214.231 119.937 216.056 120.669 216.178 120.79Z" fill="black"/>
<path d="M215.569 121.522C215.691 121.522 215.934 121.522 215.934 121.278C216.056 121.156 215.934 120.912 215.691 120.79C215.691 120.79 213.866 119.937 212.527 118.596C211.189 117.134 210.702 116.159 210.702 116.159C210.58 116.037 210.458 115.915 210.215 116.037C210.093 116.159 209.972 116.281 210.093 116.524C210.093 116.524 210.58 117.621 212.04 119.206C213.622 120.669 215.448 121.522 215.569 121.522Z" fill="black"/>
<mask id="mask2_158_1374" style="mask-type:alpha" maskUnits="userSpaceOnUse" x="216" y="95" width="16" height="8">
<path d="M216.178 102.75C216.178 102.75 218.247 93.8526 225.304 95.559C230.78 96.8997 231.997 101.775 231.997 101.775C231.997 101.775 228.712 99.5813 225.304 99.0937C218.855 98.2405 217.03 101.775 216.178 102.75Z" fill="url(#paint6_linear_158_1374)"/>
</mask>
<g mask="url(#mask2_158_1374)">
<path d="M216.178 102.75C216.178 102.75 218.247 93.8526 225.304 95.559C230.78 96.8997 231.997 101.775 231.997 101.775C231.997 101.775 228.712 99.5813 225.304 99.0937C218.855 98.2405 217.03 101.775 216.178 102.75Z" fill="url(#paint7_linear_158_1374)"/>
</g>
<path d="M237.23 88.3683C237.838 88.8559 238.325 89.3434 238.933 89.8309C254.388 102.507 260.472 104.092 260.715 104.092C261.08 104.214 261.324 103.97 261.446 103.604C261.567 103.239 261.324 102.995 260.959 102.873C260.959 102.873 254.874 101.288 239.663 88.8559C224.574 76.4233 222.262 70.329 222.262 70.329C222.14 69.9633 221.775 69.8414 221.41 69.9633C221.045 70.0852 220.924 70.4509 221.045 70.6946C221.167 70.9384 223.236 76.6671 237.23 88.3683Z" fill="#004345"/>
</g>
<path opacity="0.58" d="M173.831 137.367L186.486 124.081L184.539 122.497L169.937 134.076L173.831 137.367Z" fill="#1C08FD"/>
<path d="M107.389 92.2688C107.389 92.2688 106.051 106.042 107.632 115.793C109.093 125.544 111.04 142.974 108.484 153.7C106.051 164.426 100.453 187.219 99.7228 187.829C98.9927 188.438 108.484 186.244 108.484 186.244C108.484 186.244 122.843 159.429 124.547 145.777C126.129 132.126 125.764 108.724 127.711 106.042C129.658 103.361 135.621 101.045 137.203 95.316C139.15 87.8809 133.674 79.8363 133.674 79.8363C133.674 79.8363 108.971 88.0028 107.389 92.2688Z" fill="url(#paint8_linear_158_1374)"/>
<path d="M126.738 87.8808C126.738 87.8808 123.574 91.6593 120.288 93.7314C116.881 95.8034 113.839 101.654 113.23 105.067C112.622 108.48 116.394 136.026 116.637 137.976C116.759 140.049 121.87 142.121 120.775 142.486C119.68 142.852 113.23 144.802 114.69 144.802C116.151 144.802 120.897 145.655 119.436 146.63C117.976 147.484 111.892 149.312 112.987 149.8C114.082 150.287 118.828 151.506 116.394 152.115C114.082 152.725 109.823 168.205 108.484 173.933C107.146 179.662 108.606 186 108.606 186L99.6012 187.95C99.6012 187.95 109.093 152.115 109.336 147.971C109.58 143.827 106.902 115.184 106.172 109.089C105.321 101.898 105.807 98.3631 105.807 98.3631C105.807 98.3631 117.246 87.8808 121.018 87.1494C124.912 86.54 126.738 87.8808 126.738 87.8808Z" fill="url(#paint9_linear_158_1374)"/>
<path d="M51.5572 78.9984L50.5681 78.5275L49.2621 81.2794L50.2512 81.7503L51.5572 78.9984Z" fill="#FFB600"/>
<path d="M63.5853 86.2563L62.5962 85.7855L61.7609 87.5463L62.7499 88.017L63.5853 86.2563Z" fill="#FFB600"/>
<path d="M70.4502 92.1519L38.684 77.0389L29.018 97.4036L60.7842 112.516L70.4502 92.1519Z" fill="#FF3C00"/>
<path d="M71.8056 91.1839L38.6105 75.3875L32.9663 87.276L66.1615 103.072L71.8056 91.1839Z" fill="#FF3C00"/>
<path d="M30.9694 93.122C30.9694 93.122 35.5935 96.0473 46.5454 98.6069C55.7936 100.801 59.2009 99.7039 59.2009 99.7039L33.6465 87.5151L30.9694 93.122Z" fill="#CE2C00"/>
<path d="M53.0669 93.9357L49.2201 92.1042L46.9738 96.8381L50.8205 98.6695L53.0669 93.9357Z" fill="#FFB600"/>
<path d="M49.4659 92.1469C49.4659 92.1469 48.8574 93.9752 49.2225 95.9254C49.5875 97.8755 50.9261 98.485 50.9261 98.485L53.1165 93.8533L49.4659 92.1469Z" fill="white"/>
<path d="M66.3805 82.8833L51.0478 75.5701L49.1008 79.5924L51.6563 80.8112L52.8731 78.3735L63.0949 83.249L61.878 85.6867L64.4335 86.9056L66.3805 82.8833Z" fill="#FF3C00"/>
<path d="M51.1213 81.8549L50.7559 82.6252L60.9764 87.49L61.3419 86.7197L51.1213 81.8549Z" fill="#FF3C00"/>
<path d="M134.16 83.3709L140.732 59.3591L141.097 80.6894L134.16 83.3709Z" fill="#232440"/>
<path d="M134.647 82.6396C134.647 82.6396 140.488 69.5977 142.314 54.118C144.139 38.5164 134.526 36.4443 133.795 36.2005C128.928 33.8847 109.945 35.2254 108.849 37.5413C106.172 43.27 116.151 56.0682 116.516 69.5977C116.759 78.983 104.955 98.2412 103.008 100.191C99.7229 103.36 109.701 103.117 119.436 89.4653C120.531 88.0027 121.748 89.5872 125.521 88.0027C126.738 87.5151 127.833 86.54 128.806 85.8087C131.483 83.7366 134.647 82.6396 134.647 82.6396Z" fill="url(#paint10_linear_158_1374)"/>
<path d="M130.997 40.4666L138.663 54.2398L130.753 36.0786L130.997 40.4666Z" fill="#FF9100"/>
<path d="M116.516 87.5152C116.516 87.5152 126.007 73.2544 128.928 64.966C131.848 56.6777 130.632 48.5112 130.145 46.4392C129.658 44.3671 130.266 40.7105 130.266 40.7105L126.129 38.8821L121.505 38.7603C121.505 38.7603 117.002 84.2243 116.516 87.5152Z" fill="#FF9100"/>
<path d="M120.41 35.1036C120.41 35.1036 124.547 26.2058 124.669 23.0367C124.79 19.8676 124.669 13.4076 129.658 12.4325C134.647 11.5793 135.986 16.3329 136.351 18.2831C136.594 20.2333 137.081 25.3526 136.716 25.4744C136.351 25.5963 135.377 24.7431 135.377 24.7431C135.377 24.7431 135.499 28.0341 134.16 29.0092C132.822 29.9843 130.996 29.6186 130.996 29.6186C130.996 29.6186 129.171 34.0066 129.415 35.4692C129.658 36.81 131.118 39.979 131.118 39.979C131.118 39.979 121.383 40.2228 120.41 35.1036Z" fill="#FFB68E"/>
<path d="M119.558 34.4941C119.558 34.4941 126.737 44.2451 128.441 50.827C130.145 57.409 117.733 88.3684 113.352 92.1469C108.971 95.9254 101.913 97.7537 101.913 97.7537C101.913 97.7537 109.093 73.62 109.945 61.3094C110.918 48.8768 106.416 40.2228 109.58 36.5662C112.743 33.0315 119.558 34.4941 119.558 34.4941Z" fill="#19437F"/>
<path d="M130.51 34.616C130.51 34.616 134.16 44.8545 137.568 50.3394C140.975 55.8244 141.097 80.6894 141.097 80.6894L142.313 79.9581C142.313 79.9581 144.869 51.0708 144.26 45.5858C143.652 40.1009 140.001 35.8348 138.176 35.713C136.229 35.5911 130.51 34.616 130.51 34.616Z" fill="#19437F"/>
<path d="M102.035 97.7537C102.035 97.7537 112.013 96.291 115.542 89.2215C119.193 82.1521 123.087 61.675 122.478 56.0682C121.87 50.4614 121.262 49.9738 121.262 49.9738L124.79 49.2425L120.775 47.2923C120.775 47.2923 121.018 45.464 118.706 42.0511C116.394 38.6383 112.5 34.8598 112.5 34.8598C112.5 34.8598 107.633 34.7379 108.606 41.5636C109.458 48.2674 109.58 60.2123 109.336 64.4784C108.849 68.8664 103.739 94.2189 102.035 97.7537Z" fill="url(#paint11_linear_158_1374)"/>
<path d="M135.499 35.4692C135.499 35.4692 140.732 44.8546 141.462 46.0734C142.07 47.2923 138.906 47.2923 138.906 47.2923L141.948 48.1455C141.948 48.1455 143.044 52.1678 143.409 55.215C143.652 58.2622 141.583 69.1102 141.583 69.1102L141.097 80.6895L143.287 79.7144C143.287 79.7144 146.208 51.5584 144.869 44.9765C143.53 38.3945 140.123 36.3225 139.15 36.0787C138.176 35.713 135.499 35.4692 135.499 35.4692Z" fill="url(#paint12_linear_158_1374)"/>
<path d="M144.382 47.536C144.382 47.536 168.72 51.8021 171.032 47.2923C173.344 42.7824 169.937 23.6461 169.085 22.1835C168.233 20.7208 167.138 20.9646 167.138 20.9646L163.487 22.3053C163.487 22.3053 163.974 38.1507 163.609 39.0039C163.244 39.979 145.234 35.7129 139.028 36.0786C139.028 36.0786 143.652 47.1704 144.382 47.536Z" fill="url(#paint13_linear_158_1374)"/>
<path d="M111.162 35.3473C111.162 35.3473 80.2529 46.9266 73.195 56.6776C66.1371 66.5505 61.9998 72.5229 61.9998 72.5229L66.6239 76.6671C66.6239 76.6671 77.8191 62.8938 85.6071 57.7746C93.2734 52.6553 110.553 49.1206 113.23 45.5858C115.786 42.173 111.162 35.3473 111.162 35.3473Z" fill="url(#paint14_linear_158_1374)"/>
<path d="M62.1215 72.523C62.1215 72.523 68.0841 71.426 71.6131 67.7694C76.8456 62.1626 79.5228 60.578 78.7926 59.7248C77.9408 58.7497 77.089 56.312 78.3059 56.9214C79.5228 57.409 82.6866 59.8467 82.565 58.7497C82.4433 57.6527 79.1577 53.6305 80.8613 54.4837C82.565 55.215 85.2421 57.5309 84.9987 56.5558C84.7553 55.5807 83.0517 51.5584 84.877 53.2648C86.824 54.9712 92.3 51.8021 96.8024 50.0957C101.305 48.3893 110.066 40.5885 110.066 40.5885C110.066 40.5885 111.162 47.4142 109.093 48.2674C102.887 50.827 89.7445 55.215 85.4855 57.8965C81.3481 60.4562 66.6239 76.6672 66.6239 76.6672L62.1215 72.523Z" fill="#232440"/>
<path d="M145.112 48.1455C145.112 48.1455 144.26 45.7077 143.044 42.6606C141.948 40.1009 140.488 38.0288 140.488 38.0288C140.488 38.0288 149.371 42.9043 152.535 43.8794C155.699 44.8545 162.757 46.8047 164.461 46.8047C166.164 46.8047 165.069 44.9764 164.217 43.1481C163.244 41.3198 166.043 44.367 167.138 44.7326C168.233 45.2202 163.974 39.7353 165.191 39.8572C166.286 39.979 169.815 43.5138 169.693 42.5387C169.571 41.5636 166.408 38.2726 167.016 38.5164C167.624 38.7602 170.058 39.2477 170.058 39.2477C170.058 39.2477 167.99 27.1809 167.259 25.1088C166.408 23.0367 163.852 22.1835 163.852 22.1835C163.852 22.1835 167.016 20.1114 168.476 20.5989C169.815 21.2084 169.45 22.0616 169.45 22.0616C169.45 22.0616 172.127 32.6658 172.492 38.7602C172.857 44.7326 171.884 46.1953 171.275 47.6579C169.571 50.3395 150.71 49.9738 145.112 48.1455Z" fill="#232440"/>
<path d="M65.772 75.9358C65.772 75.9358 65.1636 79.2268 63.9467 81.7864C62.6081 84.346 61.9997 83.4928 62.3647 81.6645C62.7298 79.8362 62.6081 78.7392 62.6081 78.7392C62.6081 78.7392 61.1479 79.8362 60.7828 81.0551C60.5394 81.5426 61.7563 82.2739 61.5129 82.5177C60.0527 83.4928 58.4707 81.5426 58.4707 81.5426C58.4707 81.5426 57.8623 82.5177 57.2539 82.3958C55.9153 82.152 56.8888 80.6894 56.8888 80.6894C56.8888 80.6894 55.7936 81.6645 55.4286 80.5675C55.1852 79.4705 55.3069 79.4705 55.3069 79.4705C55.3069 79.4705 52.2647 81.7864 52.3864 80.3237C52.5081 78.8611 62.3647 72.5229 62.3647 72.5229L65.772 75.9358Z" fill="#FFB68E"/>
<path d="M130.51 34.616L130.023 35.1035C130.023 35.1035 135.864 46.8047 137.203 50.3394C139.393 56.0682 139.393 57.7746 140.001 60.6999C140.123 61.5531 140.488 65.2097 140.488 65.2097L141.097 80.4456C141.097 80.4456 142.922 64.1127 139.88 54.8493C138.541 51.1927 130.51 34.616 130.51 34.616Z" fill="#232440"/>
<path d="M63.5816 73.1324L63.2166 72.8887C63.7033 72.1573 75.1419 55.0931 77.6974 53.7523H77.819C78.9142 53.3867 85.1203 49.7301 91.8131 45.8297C101.791 39.9791 108.484 36.2006 109.214 36.2006C109.336 36.2006 109.458 36.2006 109.579 36.3224C110.188 37.0538 110.675 41.9293 110.31 43.7576L109.945 43.6357C110.31 41.6855 109.701 36.9319 109.214 36.5662C108.484 36.6881 99.3577 41.9293 92.0565 46.1953C85.3637 50.0957 79.0359 53.7523 78.0624 54.118H77.9407C75.8721 55.3369 66.9889 68.2569 63.5816 73.1324Z" fill="#232440"/>
<path d="M106.294 76.9109L112.743 75.692L113.352 73.498L106.659 75.2045L106.294 76.9109Z" fill="#232440"/>
<path d="M107.511 75.3264H107.389C107.267 75.3264 107.267 75.2045 107.267 75.0826C107.267 74.9607 111.405 64.7222 112.5 58.9935C113.595 53.3867 113.352 51.1927 113.352 51.0708C113.352 50.9489 113.474 50.827 113.595 50.827C113.717 50.827 113.839 50.9489 113.839 51.0708C113.839 51.1927 113.96 53.2648 112.987 59.1154C111.77 64.7222 107.633 75.0826 107.511 75.3264C107.511 75.2045 107.511 75.2045 107.511 75.3264Z" fill="#232440"/>
<path d="M109.58 64.3566C109.458 64.3566 109.58 64.3566 109.58 64.3566C109.336 64.3566 109.214 64.2347 109.214 64.1128L110.431 51.6803C110.431 51.5584 110.553 51.4365 110.675 51.4365C110.796 51.4365 110.918 51.5584 110.918 51.6803L109.701 64.1128C109.701 64.2347 109.58 64.2347 109.58 64.3566Z" fill="#232440"/>
<path d="M127.346 50.827C127.346 50.827 127.224 50.827 127.103 50.827L120.531 47.5361V47.4142C120.531 47.4142 120.288 46.0734 118.463 42.2949C116.637 38.5164 112.378 35.2254 112.378 35.2254C112.257 35.1036 112.257 34.9817 112.378 34.9817C112.5 34.8598 112.622 34.8598 112.622 34.9817C112.622 34.9817 116.881 38.2726 118.828 42.173C120.41 45.464 120.897 46.9266 120.897 47.2923L127.346 50.5833C127.468 50.4614 127.468 50.5833 127.346 50.827C127.468 50.827 127.346 50.827 127.346 50.827Z" fill="#232440"/>
<path d="M119.923 75.9359H119.801C119.68 75.9359 119.68 75.814 119.68 75.6921C119.68 75.5702 121.748 68.1351 122.113 61.5532C122.478 54.9713 121.505 49.9739 121.505 49.9739C121.505 49.852 121.505 49.7301 121.627 49.7301C121.748 49.7301 121.87 49.7301 121.87 49.852C121.87 49.852 122.843 54.8494 122.478 61.5532C122.113 68.1351 120.045 75.6921 120.045 75.6921C120.045 75.814 119.923 75.814 119.923 75.9359Z" fill="#232440"/>
<path d="M141.34 46.9266C140.732 47.2923 139.271 47.4142 138.785 47.4142C138.663 47.4142 138.541 47.2923 138.541 47.1704C138.541 47.0485 138.663 46.9266 138.785 46.9266C140.001 46.8048 141.218 46.561 141.34 46.3172C140.975 45.8297 136.107 37.0538 136.107 36.9319C136.107 36.81 136.107 36.6881 136.229 36.6881C136.351 36.6881 136.472 36.6881 136.472 36.81C136.716 37.1757 141.34 45.7078 141.705 46.3172C141.705 46.4391 141.705 46.561 141.705 46.6829C141.583 46.8048 141.462 46.8048 141.34 46.9266Z" fill="#232440"/>
<path d="M142.557 65.5755H142.435C142.313 65.5755 142.192 65.4536 142.313 65.3317C142.313 65.3317 143.165 59.603 143.165 56.1901C143.165 52.7773 141.827 48.5112 141.827 48.5112C141.827 48.3893 141.827 48.2675 141.948 48.2675C142.07 48.2675 142.192 48.2675 142.192 48.3893C142.192 48.3893 143.53 52.7773 143.53 56.1901C143.53 59.603 142.678 65.3317 142.678 65.3317C142.678 65.5755 142.557 65.5755 142.557 65.5755Z" fill="#232440"/>
<path d="M123.33 26.9371C123.33 26.9371 125.764 25.4745 126.738 23.7681C127.711 22.0617 127.954 21.0866 127.589 20.2333C126.859 18.6488 127.833 15.4797 128.441 16.4548C129.05 17.308 128.685 19.6239 129.293 19.0145C129.901 18.405 129.658 15.4797 131.483 14.7484C133.187 14.0171 134.282 15.3578 136.229 15.1141C138.42 14.7484 141.34 13.7733 142.435 13.042C145.842 10.6042 147.059 7.92271 145.842 5.85063C143.895 2.55967 140.123 3.04722 134.891 4.87553C129.658 6.70384 122.722 10.2386 122.965 11.8231C123.209 13.4076 126.007 14.9922 124.547 14.9922C122.965 14.9922 122.113 15.9673 122.235 17.1862C122.357 19.9896 124.425 23.7681 123.33 26.9371Z" fill="#172755"/>
<path d="M118.828 33.3972C119.071 33.3972 121.262 34.0067 124.182 35.3474C127.103 36.8101 129.171 38.7603 129.171 38.7603C129.171 38.7603 128.928 39.2478 129.658 39.9791C130.388 40.7105 130.145 40.7105 130.145 40.7105C130.145 40.7105 129.415 41.198 129.05 40.9542C128.684 40.7105 127.711 39.8573 127.711 39.8573L126.616 42.0512C126.616 42.0512 123.817 40.3448 121.14 38.1508C119.071 36.4444 116.272 34.2504 116.272 34.2504L118.828 33.3972Z" fill="url(#paint15_linear_158_1374)"/>
<path d="M129.415 34.1284H132.092C132.092 34.1284 133.309 35.3473 133.43 36.9318C133.552 38.6382 132.578 40.7103 132.457 40.5884C132.457 40.4666 131.362 39.0039 131.24 39.2477C131.118 39.4915 131.118 40.2228 131.118 40.2228C131.118 40.2228 129.415 36.3224 129.415 35.4692C129.293 34.7379 129.415 34.1284 129.415 34.1284Z" fill="url(#paint16_linear_158_1374)"/>
<path d="M129.293 41.0761L132.092 44.0014L131.727 39.8572C131.848 39.8572 130.266 40.7104 129.293 41.0761Z" fill="#FF3C00"/>
<path d="M112.013 80.5676L115.421 75.0827C115.421 75.0827 123.452 66.9162 127.711 58.6279C131.97 50.3396 131.24 42.4169 131.24 42.4169L132.213 43.6357C132.213 43.6357 133.43 56.5558 128.198 66.6725C122.965 76.6672 118.463 79.2269 112.013 80.5676Z" fill="#FF3C00"/>
<path d="M130.875 29.7405L128.076 27.6685C128.076 27.6685 127.833 31.447 127.833 33.3972C127.833 35.3474 129.658 36.9319 129.658 36.9319C129.658 36.9319 129.293 36.0787 129.415 34.7379C129.536 33.2753 130.875 29.7405 130.875 29.7405Z" fill="#EF8B59"/>
<path d="M127.833 21.0865C127.833 21.0865 125.886 19.6238 124.791 18.0393C123.695 16.4548 123.574 15.114 123.574 15.114C123.574 15.114 121.87 15.3578 122.113 17.308C122.357 19.3801 123.452 22.4273 123.574 24.1337C123.695 25.7182 123.452 26.9371 123.452 26.9371C123.452 26.9371 127.954 24.6212 127.833 21.0865Z" fill="#232440"/>
<path d="M133.309 14.2608C133.187 14.2608 133.065 14.2608 133.065 14.139C133.065 14.0171 133.065 13.8952 133.187 13.8952C133.309 13.8952 138.298 12.4325 140.488 8.8978C140.975 8.16648 140.975 7.55704 140.732 7.06949C140.001 5.97251 136.837 6.09439 135.621 6.21628C135.499 6.21628 135.377 6.09439 135.377 5.97251C135.377 5.85062 135.499 5.72873 135.621 5.72873C135.864 5.72873 140.123 5.11929 141.097 6.70383C141.462 7.31327 141.34 7.9227 140.853 8.8978C138.663 12.7982 133.795 14.139 133.309 14.2608Z" fill="#232440"/>
<path d="M132.213 14.3827C132.092 14.3827 132.092 14.3827 131.97 14.3827C131.848 14.2608 131.848 14.1389 131.97 14.1389C134.404 10.9698 136.229 8.04453 135.864 7.67887C135.499 7.19132 133.917 7.67887 132.944 8.04453C132.822 8.04453 132.7 8.04453 132.7 7.92264C132.7 7.80075 132.7 7.67887 132.822 7.67887C133.065 7.55698 135.499 6.45999 136.229 7.43509C136.838 8.2883 133.309 12.92 132.213 14.3827Z" fill="#232440"/>
<path d="M129.536 17.1862C129.415 17.1862 129.293 17.0643 129.293 16.9424C129.293 16.9424 129.415 15.6016 127.833 13.6514C126.251 11.7012 123.939 11.945 123.939 11.945C123.817 11.945 123.695 11.8231 123.695 11.7012C123.695 11.5793 123.817 11.4575 123.939 11.4575C124.06 11.4575 126.494 11.2137 128.198 13.2858C129.901 15.3579 129.78 16.8205 129.78 16.9424C129.78 17.1862 129.658 17.1862 129.536 17.1862Z" fill="#232440"/>
<path d="M140.732 13.1639C138.176 14.5047 135.742 14.7484 135.499 14.8703C135.377 14.8703 135.256 14.7484 135.256 14.6265C135.256 14.5047 135.377 14.3828 135.499 14.3828C135.499 14.3828 141.218 13.6514 143.774 10.1167C144.382 9.26349 144.626 8.53217 144.504 8.04462C144.139 7.43518 143.044 7.43518 143.044 7.43518C142.922 7.43518 142.8 7.31329 142.8 7.19141C142.8 7.06952 142.922 6.94763 143.044 6.94763C143.044 6.94763 144.504 6.94763 144.869 7.80084C145.112 8.41028 144.991 9.26349 144.139 10.2386C143.165 11.7012 141.948 12.5545 140.732 13.1639Z" fill="#232440"/>
<path d="M176.429 11.4767L140.518 18.0513L141.065 21.0488L176.976 14.4742L176.429 11.4767Z" fill="#FF3C00"/>
<path d="M190.015 14.017L153.995 19.7457L153.022 14.6265L188.798 7.06946L190.015 14.017Z" fill="#FF3C00"/>
<path d="M204.252 13.5295L173.1 17.7956L171.64 9.50721L202.184 2.43774L204.252 13.5295Z" fill="#FF3C00"/>
<path d="M201.21 2.55969L173.1 17.7956L203.157 13.6514L201.21 2.55969Z" fill="#DD2400"/>
<path d="M171.762 10.7261L172.979 16.6986L153.995 19.7457L171.762 10.7261Z" fill="#DD2400"/>
<path d="M153.265 15.8453L153.752 18.6487L142.192 20.7208L153.265 15.8453Z" fill="#DD2400"/>
<path d="M204.104 -0.0605623L200.872 0.530884L203.784 16.4774L207.016 15.886L204.104 -0.0605623Z" fill="#FF3C00"/>
<path d="M141.507 17.0127L139.113 17.4502L139.967 22.1261L142.361 21.6886L141.507 17.0127Z" fill="#FF3C00"/>
<path d="M162.757 12.7981C162.757 12.7981 163.852 15.114 164.339 15.3578C164.826 15.4796 164.704 14.5045 164.704 14.5045C164.704 14.5045 165.191 15.7234 165.678 15.4796C166.164 15.3578 166.043 14.3827 166.043 14.3827C166.043 14.3827 166.408 15.3578 166.773 14.9921C167.138 14.7483 167.138 13.7732 167.138 13.7732C167.138 13.7732 167.259 14.6264 167.746 14.6264C168.233 14.6264 168.111 13.4076 167.746 12.3106C167.381 11.2136 167.016 10.8479 166.773 10.8479C166.529 10.8479 166.408 11.0917 166.408 11.0917C166.408 11.0917 165.799 10.6041 165.556 10.8479C165.191 11.0917 165.191 11.3355 165.191 11.3355C165.191 11.3355 164.339 10.726 163.974 10.9698C163.609 11.2136 163.609 11.5792 163.609 11.5792C163.609 11.5792 162.879 11.0917 162.635 11.3355C162.392 11.7011 162.149 12.5543 162.149 12.5543L162.757 12.7981Z" fill="#FFB68E"/>
<path d="M163.974 21.9397C163.974 21.9397 160.567 18.6487 160.445 17.7955C160.323 16.9423 161.662 14.3827 162.027 14.017C162.392 13.6514 162.392 16.9423 162.392 17.6736C162.392 18.405 163.73 18.0393 165.191 18.0393C167.138 17.9174 167.99 17.7955 168.233 18.0393C168.476 18.2831 167.381 20.9646 167.381 20.9646L163.974 21.9397Z" fill="#FFB68E"/>
<path d="M167.259 20.8427C167.259 20.8427 166.042 20.9646 164.704 20.3551C163.244 19.7457 162.635 18.0393 162.635 18.0393C162.635 18.0393 164.582 17.308 166.164 17.4298C167.746 17.4298 168.355 17.5517 168.355 17.5517C168.355 17.5517 168.355 19.38 167.259 20.8427Z" fill="#EF8B59"/>
<path d="M142.192 20.7208L153.265 15.8453L142.192 20.7208Z" fill="#DD2400"/>
<mask id="mask3_158_1374" style="mask-type:alpha" maskUnits="userSpaceOnUse" x="173" y="3" width="24" height="7">
<path d="M173.1 9.2635C173.1 9.2635 179.185 9.01972 184.661 8.77595C190.137 8.65406 196.586 3.77856 196.586 3.77856L173.1 9.2635Z" fill="url(#paint17_linear_158_1374)"/>
</mask>
<g mask="url(#mask3_158_1374)">
<path opacity="0.66" d="M173.1 9.2635C173.1 9.2635 179.185 9.01972 184.661 8.77595C190.137 8.65406 196.586 3.77856 196.586 3.77856L173.1 9.2635Z" fill="url(#paint18_linear_158_1374)"/>
</g>
<mask id="mask4_158_1374" style="mask-type:alpha" maskUnits="userSpaceOnUse" x="200" y="-1" width="7" height="15">
<path d="M200.845 0.609498C200.845 0.609498 202.792 6.46009 204.009 9.01973C205.104 11.5794 206.565 13.2858 206.565 13.2858L204.131 -0.121826L200.845 0.609498Z" fill="url(#paint19_linear_158_1374)"/>
</mask>
<g mask="url(#mask4_158_1374)">
<path opacity="0.66" d="M200.845 0.609498C200.845 0.609498 202.792 6.46009 204.009 9.01973C205.104 11.5794 206.565 13.2858 206.565 13.2858L204.131 -0.121826L200.845 0.609498Z" fill="url(#paint20_linear_158_1374)"/>
</g>
<path d="M134.647 82.6397C138.298 79.9582 173.709 72.4012 176.873 77.7642C180.037 83.1272 174.317 122.984 174.317 122.984L166.164 125.422C166.164 125.422 166.529 117.378 166.286 108.236C165.921 93.4877 166.043 91.5375 166.043 91.5375C163.73 90.3186 125.156 104.458 125.156 104.458C125.156 104.458 130.51 85.6869 134.647 82.6397Z" fill="#19437F"/>
<path d="M127.711 105.92C126.616 106.164 130.875 102.142 130.51 97.1443C130.145 92.1469 130.753 88.8559 130.631 89.2216C130.51 89.5873 133.309 95.9254 134.039 95.316C134.769 94.7065 141.218 89.4654 158.741 84.8336C166.164 82.8834 167.259 84.3461 167.99 84.2242C168.72 84.1023 174.439 79.7144 173.465 81.0551C172.492 82.3959 168.476 87.7589 169.328 87.2714C170.18 86.9057 174.074 85.1993 172.492 87.0276C170.91 88.9778 167.503 92.8782 168.598 92.3907C169.693 91.9031 172.127 91.2937 171.153 92.6344C170.18 93.9752 170.18 108.602 171.153 112.38C172.005 116.281 174.561 122.741 174.561 122.741L166.408 125.178C166.408 125.178 166.529 92.1469 164.947 91.5375C162.392 90.6842 139.758 98.6069 136.716 100.191C133.917 101.776 132.335 104.823 127.711 105.92Z" fill="url(#paint21_linear_158_1374)"/>
<path d="M107.267 192.095C107.267 192.095 106.051 191.851 106.051 190.144C106.051 188.316 106.294 186.731 106.294 186.731L100.331 187.95C100.331 187.95 100.94 196.361 103.252 196.848C104.712 197.092 105.686 193.679 107.267 192.095Z" fill="white"/>
<path d="M101.062 196.239C101.062 196.239 102.766 198.555 104.47 197.458C106.173 196.361 118.829 188.194 118.22 187.95C117.734 187.585 117.369 186.61 117.125 186.853C116.76 186.975 110.797 190.266 108.85 189.535C106.782 188.804 106.66 187.097 106.66 187.097L103.861 188.925C103.861 188.925 105.565 190.998 105.443 192.216C105.443 193.191 101.062 196.239 101.062 196.239Z" fill="#050023"/>
<path d="M175.169 128.591C175.169 128.591 173.952 128.469 173.831 126.762C173.709 124.934 173.831 123.35 173.831 123.35L167.868 124.934C167.868 124.934 169.085 133.344 171.397 133.588C172.979 133.71 173.709 130.297 175.169 128.591Z" fill="white"/>
<path d="M169.206 132.979C169.206 132.979 171.032 135.173 172.735 133.954C174.439 132.857 186.486 123.838 185.878 123.594C185.269 123.35 185.026 122.375 184.661 122.497C184.296 122.741 178.576 126.275 176.508 125.666C174.439 125.056 174.196 123.35 174.196 123.35L171.518 125.422C171.518 125.422 173.344 127.372 173.344 128.591C173.465 129.688 169.206 132.979 169.206 132.979Z" fill="#050023"/>
<path d="M103.252 102.02C103.13 102.02 103.13 102.02 103.13 102.02C103.008 102.02 102.887 101.898 102.887 101.776C102.887 101.654 103.008 101.532 103.13 101.532C103.13 101.532 105.199 101.654 109.701 98.8507C112.743 96.9006 115.907 93.122 117.854 90.8062C118.949 89.4654 119.436 88.856 119.801 88.7341C120.045 88.6122 120.41 88.6122 121.018 88.6122C122.6 88.4903 125.156 88.2465 126.616 87.0277C128.198 85.8088 129.901 84.8337 131.118 84.2243C131.483 83.9805 131.97 83.8586 132.213 83.6148C133.43 82.8835 134.647 82.3959 134.647 82.3959C134.769 82.2741 134.891 82.3959 135.012 82.5178C135.134 82.6397 135.012 82.7616 134.891 82.8835C134.891 82.8835 133.674 83.4929 132.457 84.1024C132.092 84.2243 131.727 84.468 131.362 84.7118C130.145 85.3212 128.563 86.1745 126.981 87.3933C125.399 88.7341 122.722 88.9779 121.14 89.0998C120.653 89.0998 120.288 89.2216 120.045 89.2216C119.801 89.3435 119.071 90.1967 118.341 91.1718C116.394 93.4877 113.23 97.3881 110.066 99.3383C105.929 101.898 103.86 102.02 103.252 102.02Z" fill="#232440"/>
<path d="M116.637 90.8061C116.394 90.8061 116.394 90.5624 116.394 90.4405C116.394 90.3186 117.368 87.2714 119.436 84.5899C121.87 81.4208 123.817 79.9582 123.939 79.8363C124.06 79.7144 124.182 79.7144 124.304 79.8363C124.425 79.9582 124.425 80.0801 124.304 80.202C124.304 80.202 122.235 81.7865 119.923 84.8337C117.854 87.5152 117.002 90.5624 117.002 90.5624C116.881 90.6843 116.759 90.8061 116.637 90.8061Z" fill="#232440"/>
<path d="M123.33 88.6121C123.209 88.6121 123.087 88.4902 123.087 88.3683C123.087 88.3683 122.965 87.2713 123.574 85.9306C124.06 84.5898 126.007 81.5426 126.129 81.4207C126.251 81.2988 126.372 81.2988 126.494 81.2988C126.616 81.4207 126.616 81.5426 126.616 81.6645C126.616 81.6645 124.669 84.8336 124.182 86.1743C123.695 87.3932 123.695 88.4902 123.695 88.4902C123.695 88.4902 123.574 88.6121 123.33 88.6121C123.452 88.6121 123.33 88.6121 123.33 88.6121Z" fill="#232440"/>
<path d="M108.119 106.651L107.876 103.97L108.119 103.848C108.119 103.848 112.865 102.02 115.177 100.801C117.367 99.582 117.854 99.0945 117.854 99.0945L118.219 98.6069L118.706 101.41L118.584 101.532C118.584 101.532 115.786 103.361 113.717 104.579C111.648 105.676 108.606 106.53 108.484 106.651H108.119ZM108.484 104.214L108.606 105.92C109.458 105.676 111.892 104.945 113.473 103.97C115.177 102.995 117.489 101.532 118.098 101.045L117.854 99.7039C117.489 99.9477 116.759 100.435 115.42 101.167C113.23 102.385 109.336 103.848 108.484 104.214Z" fill="#232440"/>
<path d="M116.394 151.75C115.664 151.75 114.69 151.506 113.23 150.775C110.066 149.19 109.214 148.337 109.214 148.215L109.093 148.093V147.971C109.093 147.971 109.093 144.924 108.849 141.999C108.728 139.074 106.537 114.574 105.929 109.211C105.442 103.97 105.807 101.167 105.807 101.045C105.807 100.923 105.929 100.801 106.051 100.801C106.172 100.801 106.294 100.923 106.294 101.045C106.294 101.045 105.929 103.97 106.416 109.089C107.024 114.452 109.214 138.952 109.336 141.877C109.458 144.558 109.58 147.24 109.58 147.849C109.823 148.093 110.918 148.946 113.474 150.165C116.394 151.628 117.368 150.775 117.368 150.775C117.489 150.653 117.611 150.653 117.733 150.775C117.854 150.897 117.854 151.019 117.733 151.14C117.611 151.384 117.246 151.75 116.394 151.75Z" fill="#232440"/>
<path d="M117.246 146.996C117.124 146.996 117.124 146.996 117.246 146.996C115.299 146.387 110.796 144.802 110.675 143.949C110.675 143.827 110.675 143.705 110.796 143.583C111.283 142.974 117.367 142.121 120.045 141.877C120.166 141.877 120.288 141.999 120.288 142.121C120.288 142.243 120.166 142.365 120.045 142.365C116.272 142.852 112.013 143.461 111.283 143.827C111.892 144.315 114.812 145.534 117.367 146.387C117.489 146.387 117.611 146.631 117.489 146.752C117.367 146.874 117.367 146.996 117.246 146.996Z" fill="#232440"/>
<path d="M118.554 139.246L112.576 141.321L112.735 141.781L118.714 139.707L118.554 139.246Z" fill="#232440"/>
<path d="M99.9663 187.95C99.8446 187.95 99.8446 187.95 99.9663 187.95C99.7229 187.95 99.7229 187.707 99.7229 187.585L100.94 183.319L109.215 182.709C109.336 182.709 109.458 182.831 109.458 182.953C109.458 183.075 109.336 183.197 109.215 183.197L101.305 183.684L100.21 187.585C100.088 187.829 100.088 187.95 99.9663 187.95Z" fill="#232440"/>
<path d="M127.711 106.164C127.589 106.164 127.711 106.164 127.711 106.164C127.468 106.042 127.468 105.92 127.468 105.798C127.468 105.798 128.563 103.36 129.78 100.557C130.632 98.485 130.388 97.0224 130.266 96.0473C130.266 95.6816 130.145 95.4378 130.145 95.0721C130.145 93.8533 130.266 89.3434 130.266 89.2216C130.266 89.0997 130.388 88.9778 130.51 88.9778C130.632 88.9778 130.753 89.0997 130.753 89.2216C130.753 89.2216 130.51 93.9752 130.632 95.0721C130.632 95.3159 130.753 95.5597 130.753 95.9254C130.997 97.0223 131.24 98.6069 130.266 100.801C129.05 103.604 127.954 106.042 127.954 106.042C127.954 106.164 127.833 106.164 127.711 106.164Z" fill="#232440"/>
<path d="M127.711 106.164C127.589 106.164 127.468 106.042 127.468 105.92C127.468 105.798 127.589 105.676 127.711 105.554C127.711 105.554 131.605 104.945 133.917 102.02C135.621 99.9477 137.689 99.3382 141.948 97.9975C144.139 97.2661 146.938 96.4129 150.588 95.0722C157.524 92.5125 160.688 91.9031 162.635 91.5374C163.487 91.4155 164.096 91.2937 164.704 91.0499C166.164 90.5623 169.085 85.1993 170.18 83.2491C170.302 83.1272 170.423 83.1272 170.545 83.1272C170.667 83.2491 170.667 83.371 170.667 83.4929C170.302 84.2242 166.773 90.8061 164.947 91.5374C164.339 91.7812 163.609 91.9031 162.757 92.025C160.81 92.3906 157.646 92.8782 150.71 95.5597C147.059 96.9005 144.261 97.7537 142.07 98.485C137.933 99.8258 135.864 100.435 134.282 102.385C131.848 105.554 127.954 106.164 127.711 106.164Z" fill="#232440"/>
<path d="M167.138 93.3657C166.529 93.3657 166.529 93.2438 166.529 93.1219C166.286 92.6344 168.111 90.3185 172.005 86.2962C172.127 86.1744 172.249 86.1744 172.37 86.2962C172.492 86.4181 172.492 86.54 172.37 86.6619C169.937 89.2215 167.381 92.1468 167.138 92.8781C167.746 93 170.423 92.2687 172.735 91.4155C172.857 91.4155 172.979 91.4155 173.1 91.5374C173.1 91.6593 173.1 91.7812 172.979 91.9031C169.328 93 167.868 93.3657 167.138 93.3657Z" fill="#232440"/>
<path d="M165.799 125.788L166.164 120.669L169.206 119.815L175.169 118.718L174.561 123.228H174.439C174.439 123.228 173.1 123.594 172.005 123.96C170.91 124.325 166.529 125.544 166.286 125.666L165.799 125.788ZM166.651 121.034L166.408 125.057C167.503 124.691 170.788 123.838 171.762 123.472C172.614 123.106 173.709 122.863 174.074 122.741L174.561 119.328L169.328 120.303L166.651 121.034Z" fill="#232440"/>
<path d="M141.34 79.9581H140.853C140.853 79.8362 141.583 69.9633 142.192 65.4535C142.314 64.4784 142.314 64.4784 142.557 64.4784C142.679 64.4784 142.679 64.4784 142.8 64.8441C142.8 64.8441 142.8 64.9659 142.8 65.0878C142.8 65.941 142.557 67.7694 142.192 72.4011C141.705 76.1796 141.34 79.9581 141.34 79.9581Z" fill="#232440"/>
<path d="M131.97 102.385C131.848 102.385 131.97 102.385 131.97 102.385C131.727 102.264 131.605 102.142 131.727 102.02C131.727 102.02 133.43 98.3631 134.404 95.6816C135.256 93.122 135.134 90.6842 135.134 90.6842C135.134 90.5623 135.256 90.4404 135.377 90.4404C135.499 90.4404 135.621 90.5623 135.621 90.6842C135.621 90.8061 135.864 93.2438 134.891 95.9254C133.917 98.6069 132.213 102.264 132.213 102.264C132.213 102.264 132.092 102.385 131.97 102.385Z" fill="#232440"/>
<path d="M136.838 21.5741C136.716 21.5741 136.594 21.5741 136.472 21.5741H136.229L136.107 18.5269L136.351 18.405C136.716 18.2832 137.203 18.1613 137.568 18.2832C137.689 18.2832 137.689 18.405 137.811 18.5269C137.933 18.7707 137.811 21.0866 137.446 21.3303C137.203 21.4522 137.081 21.5741 136.838 21.5741ZM136.838 20.9647C136.838 20.9647 136.959 20.9647 136.838 20.9647C137.081 20.599 137.203 19.2583 137.203 18.8926C137.081 18.8926 136.838 18.8926 136.716 19.0145L136.838 20.9647Z" fill="#232440"/>
<path d="M131.118 21.8178C130.753 21.8178 130.631 21.6959 130.631 21.6959L130.51 21.574V21.4521C130.51 21.0864 130.753 19.5019 130.753 19.38V19.1362H130.997C135.621 18.4049 135.621 18.4049 135.742 18.7706C135.864 19.0144 135.499 20.2332 135.134 20.8427C135.012 21.0864 134.769 21.3302 134.647 21.3302C132.457 21.6959 131.605 21.8178 131.118 21.8178ZM130.997 21.3302C131.483 21.3302 132.822 21.0864 134.404 20.8427C134.647 20.8427 135.012 19.7457 135.012 19.1362C134.404 19.1362 132.7 19.38 131.118 19.7457C131.118 20.2332 131.118 20.9646 130.997 21.3302Z" fill="#232440"/>
<path d="M136.473 20.4767C136.351 20.4767 136.473 20.4767 136.473 20.4767L135.134 20.3549C135.012 20.3549 134.891 20.233 134.891 20.1112C134.891 19.9894 135.012 19.8676 135.134 19.8676L136.473 19.9894C136.594 19.9894 136.716 20.1112 136.716 20.233C136.716 20.3549 136.594 20.4767 136.473 20.4767Z" fill="#232440"/>
<path d="M130.997 19.502C130.997 19.502 128.806 16.3329 128.198 16.211C127.468 16.0891 126.372 17.1861 126.372 17.1861L126.616 17.4299C126.616 17.4299 127.589 16.5767 127.954 17.0642C128.319 17.5518 130.632 21.8178 130.632 21.8178L130.997 19.502Z" fill="#232440"/>
</g>
<defs>
<linearGradient id="paint0_linear_158_1374" x1="116.834" y1="243.305" x2="27.5975" y2="344.954" gradientUnits="userSpaceOnUse">
<stop stop-color="white"/>
<stop offset="0.0987288" stop-color="#FCF0CB"/>
<stop offset="0.2679" stop-color="#FFE18A"/>
<stop offset="0.3878" stop-color="#FBD461"/>
<stop offset="0.4462" stop-color="#FFD764"/>
<stop offset="0.5641" stop-color="#FEBF74"/>
<stop offset="0.630208" stop-color="#F5BF7F"/>
</linearGradient>
<linearGradient id="paint1_linear_158_1374" x1="226.836" y1="112.181" x2="202.576" y2="91.8444" gradientUnits="userSpaceOnUse">
<stop offset="0.0892857" stop-color="#665AF0"/>
<stop offset="0.8737" stop-color="#7D73F2"/>
</linearGradient>
<linearGradient id="paint2_linear_158_1374" x1="253.639" y1="54.0312" x2="250.117" y2="37.6043" gradientUnits="userSpaceOnUse">
<stop offset="0.0615079" stop-color="white"/>
<stop offset="0.4255" stop-color="#A3A3A3"/>
<stop offset="1"/>
</linearGradient>
<linearGradient id="paint3_linear_158_1374" x1="253.639" y1="54.0312" x2="250.117" y2="37.6043" gradientUnits="userSpaceOnUse">
<stop offset="0.0615079" stop-color="white"/>
<stop offset="0.4255" stop-color="white"/>
<stop offset="1" stop-color="white"/>
</linearGradient>
<linearGradient id="paint4_linear_158_1374" x1="203.516" y1="94.952" x2="198.862" y2="73.244" gradientUnits="userSpaceOnUse">
<stop offset="0.0615079" stop-color="white"/>
<stop offset="0.4255" stop-color="#A3A3A3"/>
<stop offset="1"/>
</linearGradient>
<linearGradient id="paint5_linear_158_1374" x1="227.671" y1="118.097" x2="208.107" y2="116.58" gradientUnits="userSpaceOnUse">
<stop offset="0.1687" stop-color="#E0F3F4"/>
<stop offset="0.7907" stop-color="#4D98A0"/>
</linearGradient>
<linearGradient id="paint6_linear_158_1374" x1="228.3" y1="90.3073" x2="220.876" y2="103.059" gradientUnits="userSpaceOnUse">
<stop offset="0.0615079" stop-color="white"/>
<stop offset="1"/>
</linearGradient>
<linearGradient id="paint7_linear_158_1374" x1="228.3" y1="90.3073" x2="220.876" y2="103.059" gradientUnits="userSpaceOnUse">
<stop offset="0.0615079" stop-color="white"/>
<stop offset="1" stop-color="white"/>
</linearGradient>
<linearGradient id="paint8_linear_158_1374" x1="96.1637" y1="135.133" x2="140.373" y2="132.142" gradientUnits="userSpaceOnUse">
<stop offset="0.121" stop-color="#0A2D51"/>
<stop offset="0.8552" stop-color="#19437F"/>
<stop offset="1" stop-color="#0A2D51"/>
</linearGradient>
<linearGradient id="paint9_linear_158_1374" x1="96.2587" y1="138.593" x2="130.025" y2="136.309" gradientUnits="userSpaceOnUse">
<stop offset="0.121" stop-color="#0A2D51"/>
<stop offset="1" stop-color="#0A2D51"/>
</linearGradient>
<linearGradient id="paint10_linear_158_1374" x1="100.237" y1="69.1569" x2="143.726" y2="66.2151" gradientUnits="userSpaceOnUse">
<stop offset="0.1072" stop-color="#FFFFA4"/>
<stop offset="0.4147" stop-color="#FFD234"/>
<stop offset="0.7979" stop-color="#FF9200"/>
</linearGradient>
<linearGradient id="paint11_linear_158_1374" x1="104.035" y1="71.2865" x2="147.676" y2="30.3376" gradientUnits="userSpaceOnUse">
<stop offset="0.121" stop-color="#0A2D51"/>
<stop offset="0.4862" stop-color="#19437F"/>
</linearGradient>
<linearGradient id="paint12_linear_158_1374" x1="137.036" y1="58.138" x2="145.727" y2="57.5501" gradientUnits="userSpaceOnUse">
<stop offset="0.121" stop-color="#0A2D51"/>
<stop offset="1" stop-color="#0A2D51"/>
</linearGradient>
<linearGradient id="paint13_linear_158_1374" x1="139.116" y1="36.8549" x2="171.435" y2="34.6687" gradientUnits="userSpaceOnUse">
<stop offset="0.121" stop-color="#0A2D51"/>
<stop offset="1" stop-color="#0A2D51"/>
</linearGradient>
<linearGradient id="paint14_linear_158_1374" x1="72.4898" y1="64.124" x2="120.488" y2="34.2767" gradientUnits="userSpaceOnUse">
<stop offset="0.121" stop-color="#0A2D51"/>
<stop offset="0.4862" stop-color="#19437F"/>
</linearGradient>
<linearGradient id="paint15_linear_158_1374" x1="126.48" y1="33.8539" x2="117.693" y2="43.9345" gradientUnits="userSpaceOnUse">
<stop offset="0.1072" stop-color="#FFFFA4"/>
<stop offset="0.4147" stop-color="#FFD234"/>
<stop offset="0.7979" stop-color="#FF9200"/>
</linearGradient>
<linearGradient id="paint16_linear_158_1374" x1="133.092" y1="33.9356" x2="127.936" y2="42.016" gradientUnits="userSpaceOnUse">
<stop offset="0.1072" stop-color="#FFFFA4"/>
<stop offset="0.4147" stop-color="#FFD234"/>
<stop offset="0.7979" stop-color="#FF9200"/>
</linearGradient>
<linearGradient id="paint17_linear_158_1374" x1="172.939" y1="7.4658" x2="196.733" y2="5.85625" gradientUnits="userSpaceOnUse">
<stop offset="0.0615079" stop-color="white"/>
<stop offset="0.4255" stop-color="#A3A3A3"/>
<stop offset="1"/>
</linearGradient>
<linearGradient id="paint18_linear_158_1374" x1="172.939" y1="7.4658" x2="196.733" y2="5.85625" gradientUnits="userSpaceOnUse">
<stop offset="0.0615079" stop-color="white"/>
<stop offset="0.4255" stop-color="white"/>
<stop offset="1" stop-color="white"/>
</linearGradient>
<linearGradient id="paint19_linear_158_1374" x1="201.263" y1="6.94528" x2="206.023" y2="6.62324" gradientUnits="userSpaceOnUse">
<stop offset="0.0615079" stop-color="white"/>
<stop offset="0.4255" stop-color="#A3A3A3"/>
<stop offset="1"/>
</linearGradient>
<linearGradient id="paint20_linear_158_1374" x1="201.263" y1="6.94528" x2="206.023" y2="6.62324" gradientUnits="userSpaceOnUse">
<stop offset="0.0615079" stop-color="white"/>
<stop offset="0.4255" stop-color="white"/>
<stop offset="1" stop-color="white"/>
</linearGradient>
<linearGradient id="paint21_linear_158_1374" x1="127.528" y1="105.94" x2="174.93" y2="102.734" gradientUnits="userSpaceOnUse">
<stop offset="0.121" stop-color="#0A2D51"/>
<stop offset="1" stop-color="#0A2D51"/>
</linearGradient>
<clipPath id="clip0_158_1374">
<rect width="257.978" height="259.498" fill="white" transform="translate(29.0225)"/>
</clipPath>
</defs>
</svg>
