<?xml version="1.0" standalone="no"?>
<!DOCTYPE svg PUBLIC "-//W3C//DTD SVG 20010904//EN"
 "http://www.w3.org/TR/2001/REC-SVG-20010904/DTD/svg10.dtd">
<svg version="1.0" xmlns="http://www.w3.org/2000/svg"
 width="512.000000pt" height="512.000000pt" viewBox="0 0 512.000000 512.000000"
 preserveAspectRatio="xMidYMid meet">

<g transform="translate(0.000000,512.000000) scale(0.100000,-0.100000)"
fill="#000000" stroke="none">
<path d="M2446 5104 c-127 -31 -250 -128 -311 -246 l-30 -57 -202 -3 c-221 -3
-227 -5 -277 -72 -20 -27 -21 -39 -21 -406 0 -367 1 -379 21 -406 11 -15 33
-37 48 -48 27 -21 34 -21 886 -21 852 0 859 0 886 21 15 11 37 33 48 48 20 27
21 39 21 406 0 367 -1 379 -21 406 -50 67 -56 69 -277 72 l-202 3 -30 57
c-101 196 -325 298 -539 246z"/>
<path d="M863 4461 c-72 -24 -127 -65 -163 -119 -64 -97 -60 45 -60 -2099 0
-1448 3 -1966 12 -2001 27 -110 120 -203 230 -230 67 -17 3289 -17 3356 0 110
27 203 120 230 230 17 67 17 3929 0 3996 -27 110 -120 203 -230 230 -27 7
-123 12 -222 12 l-176 0 0 -257 c0 -362 -19 -432 -145 -558 -72 -72 -141 -111
-232 -130 -101 -22 -1705 -22 -1806 0 -91 19 -160 58 -232 130 -126 126 -145
196 -145 558 l0 257 -182 0 c-150 -1 -193 -4 -235 -19z m1604 -1277 c71 -34
109 -122 84 -196 -8 -24 -113 -135 -364 -385 -381 -380 -374 -375 -465 -358
-31 5 -67 36 -234 203 -212 212 -219 224 -203 309 9 49 69 109 118 118 78 15
101 2 234 -128 l124 -121 277 277 c152 152 288 281 302 286 38 15 88 13 127
-5z m1299 -330 c53 -39 69 -71 69 -134 0 -63 -16 -95 -69 -134 -26 -20 -42
-21 -384 -24 -234 -2 -370 1 -394 8 -101 29 -140 168 -71 251 50 58 53 59 455
56 353 -2 368 -3 394 -23z m-1299 -950 c71 -34 109 -122 84 -196 -8 -24 -113
-135 -364 -385 -381 -380 -374 -375 -465 -358 -31 5 -67 36 -234 203 -212 212
-219 224 -203 309 9 49 69 109 118 118 78 15 101 2 234 -128 l124 -121 277
277 c152 152 288 281 302 286 38 15 88 13 127 -5z m1299 -330 c53 -39 69 -71
69 -134 0 -63 -16 -95 -69 -134 -26 -20 -42 -21 -384 -24 -234 -2 -370 1 -394
8 -101 29 -140 168 -71 251 50 58 53 59 455 56 353 -2 368 -3 394 -23z"/>
</g>
</svg>
