<svg width="375" height="170" viewBox="0 0 375 170" fill="none" xmlns="http://www.w3.org/2000/svg">
<path d="M0 0H375V155C375 163.284 368.284 170 360 170H15C6.71574 170 0 163.284 0 155V0Z" fill="#123F8C"/>
<mask id="mask0_914_1489" style="mask-type:alpha" maskUnits="userSpaceOnUse" x="244" y="0" width="131" height="121">
<path d="M244 0H375V81C375 103.091 357.091 121 335 121H244V0Z" fill="url(#paint0_linear_914_1489)"/>
</mask>
<g mask="url(#mask0_914_1489)">
<circle cx="350" cy="9" r="70" stroke="#BE9FFF" stroke-opacity="0.2" stroke-width="20"/>
</g>
<mask id="mask1_914_1489" style="mask-type:alpha" maskUnits="userSpaceOnUse" x="0" y="24" width="147" height="146">
<path d="M0 24H146.483V130C146.483 152.091 128.574 170 106.483 170H0V24Z" fill="url(#paint1_linear_914_1489)"/>
</mask>
<g mask="url(#mask1_914_1489)">
<path d="M0.755493 51.8743C60.6061 51.8743 106.676 104.919 106.676 167.18C106.676 229.441 60.606 282.485 0.755493 282.485C-59.0949 282.484 -105.164 229.441 -105.164 167.18C-105.164 104.919 -59.095 51.8745 0.755493 51.8743Z" stroke="#BE9FFF" stroke-opacity="0.2" stroke-width="30"/>
</g>
<defs>
<linearGradient id="paint0_linear_914_1489" x1="244" y1="121" x2="385.095" y2="13.2153" gradientUnits="userSpaceOnUse">
<stop stop-color="#007AFE"/>
<stop offset="1" stop-color="#6E95FB"/>
</linearGradient>
<linearGradient id="paint1_linear_914_1489" x1="-3.27414e-06" y1="170" x2="166.431" y2="52.178" gradientUnits="userSpaceOnUse">
<stop stop-color="#4484C9"/>
<stop offset="1" stop-color="#6E95FB"/>
</linearGradient>
</defs>
</svg>
